<?xml version="1.0" encoding="utf-8" standalone="no"?>
<!DOCTYPE svg PUBLIC "-//W3C//DTD SVG 1.1//EN"
  "http://www.w3.org/Graphics/SVG/1.1/DTD/svg11.dtd">
<svg xmlns:xlink="http://www.w3.org/1999/xlink" width="1440pt" height="576pt" viewBox="0 0 1440 576" xmlns="http://www.w3.org/2000/svg" version="1.1">
 <metadata>
  <rdf:RDF xmlns:dc="http://purl.org/dc/elements/1.1/" xmlns:cc="http://creativecommons.org/ns#" xmlns:rdf="http://www.w3.org/1999/02/22-rdf-syntax-ns#">
   <cc:Work>
    <dc:type rdf:resource="http://purl.org/dc/dcmitype/StillImage"/>
    <dc:date>2024-05-07T13:41:20.253706</dc:date>
    <dc:format>image/svg+xml</dc:format>
    <dc:creator>
     <cc:Agent>
      <dc:title>Matplotlib v3.8.4, https://matplotlib.org/</dc:title>
     </cc:Agent>
    </dc:creator>
   </cc:Work>
  </rdf:RDF>
 </metadata>
 <defs>
  <style type="text/css">*{stroke-linejoin: round; stroke-linecap: butt}</style>
 </defs>
 <g id="figure_1">
  <g id="patch_1">
   <path d="M 0 576 
L 1440 576 
L 1440 0 
L 0 0 
z
" style="fill: #ffffff"/>
  </g>
  <g id="axes_1">
   <g id="patch_2">
    <path d="M 180 512.64 
L 856.363636 512.64 
L 856.363636 69.12 
L 180 69.12 
z
" style="fill: #ffffff"/>
   </g>
   <g id="matplotlib.axis_1">
    <g id="xtick_1">
     <g id="text_1">
      <!-- 0 -->
      <g style="fill: #262626" transform="translate(207.685286 530.013594) scale(0.11 -0.11)">
       <defs>
        <path id="ArialMT-30" d="M 266 2259 
Q 266 3072 433 3567 
Q 600 4063 929 4331 
Q 1259 4600 1759 4600 
Q 2128 4600 2406 4451 
Q 2684 4303 2865 4023 
Q 3047 3744 3150 3342 
Q 3253 2941 3253 2259 
Q 3253 1453 3087 958 
Q 2922 463 2592 192 
Q 2263 -78 1759 -78 
Q 1097 -78 719 397 
Q 266 969 266 2259 
z
M 844 2259 
Q 844 1131 1108 757 
Q 1372 384 1759 384 
Q 2147 384 2411 759 
Q 2675 1134 2675 2259 
Q 2675 3391 2411 3762 
Q 2147 4134 1753 4134 
Q 1366 4134 1134 3806 
Q 844 3388 844 2259 
z
" transform="scale(0.015625)"/>
       </defs>
       <use xlink:href="#ArialMT-30"/>
      </g>
     </g>
    </g>
    <g id="xtick_2">
     <g id="text_2">
      <!-- 20 -->
      <g style="fill: #262626" transform="translate(328.844151 530.013594) scale(0.11 -0.11)">
       <defs>
        <path id="ArialMT-32" d="M 3222 541 
L 3222 0 
L 194 0 
Q 188 203 259 391 
Q 375 700 629 1000 
Q 884 1300 1366 1694 
Q 2113 2306 2375 2664 
Q 2638 3022 2638 3341 
Q 2638 3675 2398 3904 
Q 2159 4134 1775 4134 
Q 1369 4134 1125 3890 
Q 881 3647 878 3216 
L 300 3275 
Q 359 3922 746 4261 
Q 1134 4600 1788 4600 
Q 2447 4600 2831 4234 
Q 3216 3869 3216 3328 
Q 3216 3053 3103 2787 
Q 2991 2522 2730 2228 
Q 2469 1934 1863 1422 
Q 1356 997 1212 845 
Q 1069 694 975 541 
L 3222 541 
z
" transform="scale(0.015625)"/>
       </defs>
       <use xlink:href="#ArialMT-32"/>
       <use xlink:href="#ArialMT-30" x="55.615234"/>
      </g>
     </g>
    </g>
    <g id="xtick_3">
     <g id="text_3">
      <!-- 40 -->
      <g style="fill: #262626" transform="translate(453.061531 530.013594) scale(0.11 -0.11)">
       <defs>
        <path id="ArialMT-34" d="M 2069 0 
L 2069 1097 
L 81 1097 
L 81 1613 
L 2172 4581 
L 2631 4581 
L 2631 1613 
L 3250 1613 
L 3250 1097 
L 2631 1097 
L 2631 0 
L 2069 0 
z
M 2069 1613 
L 2069 3678 
L 634 1613 
L 2069 1613 
z
" transform="scale(0.015625)"/>
       </defs>
       <use xlink:href="#ArialMT-34"/>
       <use xlink:href="#ArialMT-30" x="55.615234"/>
      </g>
     </g>
    </g>
    <g id="xtick_4">
     <g id="text_4">
      <!-- 60 -->
      <g style="fill: #262626" transform="translate(577.278912 530.013594) scale(0.11 -0.11)">
       <defs>
        <path id="ArialMT-36" d="M 3184 3459 
L 2625 3416 
Q 2550 3747 2413 3897 
Q 2184 4138 1850 4138 
Q 1581 4138 1378 3988 
Q 1113 3794 959 3422 
Q 806 3050 800 2363 
Q 1003 2672 1297 2822 
Q 1591 2972 1913 2972 
Q 2475 2972 2870 2558 
Q 3266 2144 3266 1488 
Q 3266 1056 3080 686 
Q 2894 316 2569 119 
Q 2244 -78 1831 -78 
Q 1128 -78 684 439 
Q 241 956 241 2144 
Q 241 3472 731 4075 
Q 1159 4600 1884 4600 
Q 2425 4600 2770 4297 
Q 3116 3994 3184 3459 
z
M 888 1484 
Q 888 1194 1011 928 
Q 1134 663 1356 523 
Q 1578 384 1822 384 
Q 2178 384 2434 671 
Q 2691 959 2691 1453 
Q 2691 1928 2437 2201 
Q 2184 2475 1800 2475 
Q 1419 2475 1153 2201 
Q 888 1928 888 1484 
z
" transform="scale(0.015625)"/>
       </defs>
       <use xlink:href="#ArialMT-36"/>
       <use xlink:href="#ArialMT-30" x="55.615234"/>
      </g>
     </g>
    </g>
    <g id="xtick_5">
     <g id="text_5">
      <!-- 80 -->
      <g style="fill: #262626" transform="translate(701.496292 530.013594) scale(0.11 -0.11)">
       <defs>
        <path id="ArialMT-38" d="M 1131 2484 
Q 781 2613 612 2850 
Q 444 3088 444 3419 
Q 444 3919 803 4259 
Q 1163 4600 1759 4600 
Q 2359 4600 2725 4251 
Q 3091 3903 3091 3403 
Q 3091 3084 2923 2848 
Q 2756 2613 2416 2484 
Q 2838 2347 3058 2040 
Q 3278 1734 3278 1309 
Q 3278 722 2862 322 
Q 2447 -78 1769 -78 
Q 1091 -78 675 323 
Q 259 725 259 1325 
Q 259 1772 486 2073 
Q 713 2375 1131 2484 
z
M 1019 3438 
Q 1019 3113 1228 2906 
Q 1438 2700 1772 2700 
Q 2097 2700 2305 2904 
Q 2513 3109 2513 3406 
Q 2513 3716 2298 3927 
Q 2084 4138 1766 4138 
Q 1444 4138 1231 3931 
Q 1019 3725 1019 3438 
z
M 838 1322 
Q 838 1081 952 856 
Q 1066 631 1291 507 
Q 1516 384 1775 384 
Q 2178 384 2440 643 
Q 2703 903 2703 1303 
Q 2703 1709 2433 1975 
Q 2163 2241 1756 2241 
Q 1359 2241 1098 1978 
Q 838 1716 838 1322 
z
" transform="scale(0.015625)"/>
       </defs>
       <use xlink:href="#ArialMT-38"/>
       <use xlink:href="#ArialMT-30" x="55.615234"/>
      </g>
     </g>
    </g>
    <g id="xtick_6">
     <g id="text_6">
      <!-- 100 -->
      <g style="fill: #262626" transform="translate(822.655157 530.013594) scale(0.11 -0.11)">
       <defs>
        <path id="ArialMT-31" d="M 2384 0 
L 1822 0 
L 1822 3584 
Q 1619 3391 1289 3197 
Q 959 3003 697 2906 
L 697 3450 
Q 1169 3672 1522 3987 
Q 1875 4303 2022 4600 
L 2384 4600 
L 2384 0 
z
" transform="scale(0.015625)"/>
       </defs>
       <use xlink:href="#ArialMT-31"/>
       <use xlink:href="#ArialMT-30" x="55.615234"/>
       <use xlink:href="#ArialMT-30" x="111.230469"/>
      </g>
     </g>
    </g>
    <g id="text_7">
     <!-- Time (Samples) -->
     <g style="fill: #262626" transform="translate(469.050568 546.391406) scale(0.14 -0.14)">
      <defs>
       <path id="ArialMT-54" d="M 1659 0 
L 1659 4041 
L 150 4041 
L 150 4581 
L 3781 4581 
L 3781 4041 
L 2266 4041 
L 2266 0 
L 1659 0 
z
" transform="scale(0.015625)"/>
       <path id="ArialMT-69" d="M 425 3934 
L 425 4581 
L 988 4581 
L 988 3934 
L 425 3934 
z
M 425 0 
L 425 3319 
L 988 3319 
L 988 0 
L 425 0 
z
" transform="scale(0.015625)"/>
       <path id="ArialMT-6d" d="M 422 0 
L 422 3319 
L 925 3319 
L 925 2853 
Q 1081 3097 1340 3245 
Q 1600 3394 1931 3394 
Q 2300 3394 2536 3241 
Q 2772 3088 2869 2813 
Q 3263 3394 3894 3394 
Q 4388 3394 4653 3120 
Q 4919 2847 4919 2278 
L 4919 0 
L 4359 0 
L 4359 2091 
Q 4359 2428 4304 2576 
Q 4250 2725 4106 2815 
Q 3963 2906 3769 2906 
Q 3419 2906 3187 2673 
Q 2956 2441 2956 1928 
L 2956 0 
L 2394 0 
L 2394 2156 
Q 2394 2531 2256 2718 
Q 2119 2906 1806 2906 
Q 1569 2906 1367 2781 
Q 1166 2656 1075 2415 
Q 984 2175 984 1722 
L 984 0 
L 422 0 
z
" transform="scale(0.015625)"/>
       <path id="ArialMT-65" d="M 2694 1069 
L 3275 997 
Q 3138 488 2766 206 
Q 2394 -75 1816 -75 
Q 1088 -75 661 373 
Q 234 822 234 1631 
Q 234 2469 665 2931 
Q 1097 3394 1784 3394 
Q 2450 3394 2872 2941 
Q 3294 2488 3294 1666 
Q 3294 1616 3291 1516 
L 816 1516 
Q 847 969 1125 678 
Q 1403 388 1819 388 
Q 2128 388 2347 550 
Q 2566 713 2694 1069 
z
M 847 1978 
L 2700 1978 
Q 2663 2397 2488 2606 
Q 2219 2931 1791 2931 
Q 1403 2931 1139 2672 
Q 875 2413 847 1978 
z
" transform="scale(0.015625)"/>
       <path id="ArialMT-20" transform="scale(0.015625)"/>
       <path id="ArialMT-28" d="M 1497 -1347 
Q 1031 -759 709 28 
Q 388 816 388 1659 
Q 388 2403 628 3084 
Q 909 3875 1497 4659 
L 1900 4659 
Q 1522 4009 1400 3731 
Q 1209 3300 1100 2831 
Q 966 2247 966 1656 
Q 966 153 1900 -1347 
L 1497 -1347 
z
" transform="scale(0.015625)"/>
       <path id="ArialMT-53" d="M 288 1472 
L 859 1522 
Q 900 1178 1048 958 
Q 1197 738 1509 602 
Q 1822 466 2213 466 
Q 2559 466 2825 569 
Q 3091 672 3220 851 
Q 3350 1031 3350 1244 
Q 3350 1459 3225 1620 
Q 3100 1781 2813 1891 
Q 2628 1963 1997 2114 
Q 1366 2266 1113 2400 
Q 784 2572 623 2826 
Q 463 3081 463 3397 
Q 463 3744 659 4045 
Q 856 4347 1234 4503 
Q 1613 4659 2075 4659 
Q 2584 4659 2973 4495 
Q 3363 4331 3572 4012 
Q 3781 3694 3797 3291 
L 3216 3247 
Q 3169 3681 2898 3903 
Q 2628 4125 2100 4125 
Q 1550 4125 1298 3923 
Q 1047 3722 1047 3438 
Q 1047 3191 1225 3031 
Q 1400 2872 2139 2705 
Q 2878 2538 3153 2413 
Q 3553 2228 3743 1945 
Q 3934 1663 3934 1294 
Q 3934 928 3725 604 
Q 3516 281 3123 101 
Q 2731 -78 2241 -78 
Q 1619 -78 1198 103 
Q 778 284 539 648 
Q 300 1013 288 1472 
z
" transform="scale(0.015625)"/>
       <path id="ArialMT-61" d="M 2588 409 
Q 2275 144 1986 34 
Q 1697 -75 1366 -75 
Q 819 -75 525 192 
Q 231 459 231 875 
Q 231 1119 342 1320 
Q 453 1522 633 1644 
Q 813 1766 1038 1828 
Q 1203 1872 1538 1913 
Q 2219 1994 2541 2106 
Q 2544 2222 2544 2253 
Q 2544 2597 2384 2738 
Q 2169 2928 1744 2928 
Q 1347 2928 1158 2789 
Q 969 2650 878 2297 
L 328 2372 
Q 403 2725 575 2942 
Q 747 3159 1072 3276 
Q 1397 3394 1825 3394 
Q 2250 3394 2515 3294 
Q 2781 3194 2906 3042 
Q 3031 2891 3081 2659 
Q 3109 2516 3109 2141 
L 3109 1391 
Q 3109 606 3145 398 
Q 3181 191 3288 0 
L 2700 0 
Q 2613 175 2588 409 
z
M 2541 1666 
Q 2234 1541 1622 1453 
Q 1275 1403 1131 1340 
Q 988 1278 909 1158 
Q 831 1038 831 891 
Q 831 666 1001 516 
Q 1172 366 1500 366 
Q 1825 366 2078 508 
Q 2331 650 2450 897 
Q 2541 1088 2541 1459 
L 2541 1666 
z
" transform="scale(0.015625)"/>
       <path id="ArialMT-70" d="M 422 -1272 
L 422 3319 
L 934 3319 
L 934 2888 
Q 1116 3141 1344 3267 
Q 1572 3394 1897 3394 
Q 2322 3394 2647 3175 
Q 2972 2956 3137 2557 
Q 3303 2159 3303 1684 
Q 3303 1175 3120 767 
Q 2938 359 2589 142 
Q 2241 -75 1856 -75 
Q 1575 -75 1351 44 
Q 1128 163 984 344 
L 984 -1272 
L 422 -1272 
z
M 931 1641 
Q 931 1000 1190 694 
Q 1450 388 1819 388 
Q 2194 388 2461 705 
Q 2728 1022 2728 1688 
Q 2728 2322 2467 2637 
Q 2206 2953 1844 2953 
Q 1484 2953 1207 2617 
Q 931 2281 931 1641 
z
" transform="scale(0.015625)"/>
       <path id="ArialMT-6c" d="M 409 0 
L 409 4581 
L 972 4581 
L 972 0 
L 409 0 
z
" transform="scale(0.015625)"/>
       <path id="ArialMT-73" d="M 197 991 
L 753 1078 
Q 800 744 1014 566 
Q 1228 388 1613 388 
Q 2000 388 2187 545 
Q 2375 703 2375 916 
Q 2375 1106 2209 1216 
Q 2094 1291 1634 1406 
Q 1016 1563 777 1677 
Q 538 1791 414 1992 
Q 291 2194 291 2438 
Q 291 2659 392 2848 
Q 494 3038 669 3163 
Q 800 3259 1026 3326 
Q 1253 3394 1513 3394 
Q 1903 3394 2198 3281 
Q 2494 3169 2634 2976 
Q 2775 2784 2828 2463 
L 2278 2388 
Q 2241 2644 2061 2787 
Q 1881 2931 1553 2931 
Q 1166 2931 1000 2803 
Q 834 2675 834 2503 
Q 834 2394 903 2306 
Q 972 2216 1119 2156 
Q 1203 2125 1616 2013 
Q 2213 1853 2448 1751 
Q 2684 1650 2818 1456 
Q 2953 1263 2953 975 
Q 2953 694 2789 445 
Q 2625 197 2315 61 
Q 2006 -75 1616 -75 
Q 969 -75 630 194 
Q 291 463 197 991 
z
" transform="scale(0.015625)"/>
       <path id="ArialMT-29" d="M 791 -1347 
L 388 -1347 
Q 1322 153 1322 1656 
Q 1322 2244 1188 2822 
Q 1081 3291 891 3722 
Q 769 4003 388 4659 
L 791 4659 
Q 1378 3875 1659 3084 
Q 1900 2403 1900 1659 
Q 1900 816 1576 28 
Q 1253 -759 791 -1347 
z
" transform="scale(0.015625)"/>
      </defs>
      <use xlink:href="#ArialMT-54"/>
      <use xlink:href="#ArialMT-69" x="57.333984"/>
      <use xlink:href="#ArialMT-6d" x="79.550781"/>
      <use xlink:href="#ArialMT-65" x="162.851562"/>
      <use xlink:href="#ArialMT-20" x="218.466797"/>
      <use xlink:href="#ArialMT-28" x="246.25"/>
      <use xlink:href="#ArialMT-53" x="279.550781"/>
      <use xlink:href="#ArialMT-61" x="346.25"/>
      <use xlink:href="#ArialMT-6d" x="401.865234"/>
      <use xlink:href="#ArialMT-70" x="485.166016"/>
      <use xlink:href="#ArialMT-6c" x="540.78125"/>
      <use xlink:href="#ArialMT-65" x="562.998047"/>
      <use xlink:href="#ArialMT-73" x="618.613281"/>
      <use xlink:href="#ArialMT-29" x="668.613281"/>
     </g>
    </g>
   </g>
   <g id="matplotlib.axis_2">
    <g id="ytick_1">
     <g id="text_8">
      <!-- 55 -->
      <g style="fill: #262626" transform="translate(158.265938 484.296797) scale(0.11 -0.11)">
       <defs>
        <path id="ArialMT-35" d="M 266 1200 
L 856 1250 
Q 922 819 1161 601 
Q 1400 384 1738 384 
Q 2144 384 2425 690 
Q 2706 997 2706 1503 
Q 2706 1984 2436 2262 
Q 2166 2541 1728 2541 
Q 1456 2541 1237 2417 
Q 1019 2294 894 2097 
L 366 2166 
L 809 4519 
L 3088 4519 
L 3088 3981 
L 1259 3981 
L 1013 2750 
Q 1425 3038 1878 3038 
Q 2478 3038 2890 2622 
Q 3303 2206 3303 1553 
Q 3303 931 2941 478 
Q 2500 -78 1738 -78 
Q 1113 -78 717 272 
Q 322 622 266 1200 
z
" transform="scale(0.015625)"/>
       </defs>
       <use xlink:href="#ArialMT-35"/>
       <use xlink:href="#ArialMT-35" x="55.615234"/>
      </g>
     </g>
    </g>
    <g id="ytick_2">
     <g id="text_9">
      <!-- 60 -->
      <g style="fill: #262626" transform="translate(158.265938 424.296797) scale(0.11 -0.11)">
       <use xlink:href="#ArialMT-36"/>
       <use xlink:href="#ArialMT-30" x="55.615234"/>
      </g>
     </g>
    </g>
    <g id="ytick_3">
     <g id="text_10">
      <!-- 65 -->
      <g style="fill: #262626" transform="translate(158.265938 364.296797) scale(0.11 -0.11)">
       <use xlink:href="#ArialMT-36"/>
       <use xlink:href="#ArialMT-35" x="55.615234"/>
      </g>
     </g>
    </g>
    <g id="ytick_4">
     <g id="text_11">
      <!-- 70 -->
      <g style="fill: #262626" transform="translate(158.265938 304.296797) scale(0.11 -0.11)">
       <defs>
        <path id="ArialMT-37" d="M 303 3981 
L 303 4522 
L 3269 4522 
L 3269 4084 
Q 2831 3619 2401 2847 
Q 1972 2075 1738 1259 
Q 1569 684 1522 0 
L 944 0 
Q 953 541 1156 1306 
Q 1359 2072 1739 2783 
Q 2119 3494 2547 3981 
L 303 3981 
z
" transform="scale(0.015625)"/>
       </defs>
       <use xlink:href="#ArialMT-37"/>
       <use xlink:href="#ArialMT-30" x="55.615234"/>
      </g>
     </g>
    </g>
    <g id="ytick_5">
     <g id="text_12">
      <!-- 75 -->
      <g style="fill: #262626" transform="translate(158.265938 244.296797) scale(0.11 -0.11)">
       <use xlink:href="#ArialMT-37"/>
       <use xlink:href="#ArialMT-35" x="55.615234"/>
      </g>
     </g>
    </g>
    <g id="ytick_6">
     <g id="text_13">
      <!-- 80 -->
      <g style="fill: #262626" transform="translate(158.265938 184.296797) scale(0.11 -0.11)">
       <use xlink:href="#ArialMT-38"/>
       <use xlink:href="#ArialMT-30" x="55.615234"/>
      </g>
     </g>
    </g>
    <g id="ytick_7">
     <g id="text_14">
      <!-- 85 -->
      <g style="fill: #262626" transform="translate(158.265938 124.296797) scale(0.11 -0.11)">
       <use xlink:href="#ArialMT-38"/>
       <use xlink:href="#ArialMT-35" x="55.615234"/>
      </g>
     </g>
    </g>
    <g id="text_15">
     <!-- Latency (ms) -->
     <g style="fill: #262626" transform="translate(151.319375 331.332344) rotate(-90) scale(0.14 -0.14)">
      <defs>
       <path id="ArialMT-4c" d="M 469 0 
L 469 4581 
L 1075 4581 
L 1075 541 
L 3331 541 
L 3331 0 
L 469 0 
z
" transform="scale(0.015625)"/>
       <path id="ArialMT-74" d="M 1650 503 
L 1731 6 
Q 1494 -44 1306 -44 
Q 1000 -44 831 53 
Q 663 150 594 308 
Q 525 466 525 972 
L 525 2881 
L 113 2881 
L 113 3319 
L 525 3319 
L 525 4141 
L 1084 4478 
L 1084 3319 
L 1650 3319 
L 1650 2881 
L 1084 2881 
L 1084 941 
Q 1084 700 1114 631 
Q 1144 563 1211 522 
Q 1278 481 1403 481 
Q 1497 481 1650 503 
z
" transform="scale(0.015625)"/>
       <path id="ArialMT-6e" d="M 422 0 
L 422 3319 
L 928 3319 
L 928 2847 
Q 1294 3394 1984 3394 
Q 2284 3394 2536 3286 
Q 2788 3178 2913 3003 
Q 3038 2828 3088 2588 
Q 3119 2431 3119 2041 
L 3119 0 
L 2556 0 
L 2556 2019 
Q 2556 2363 2490 2533 
Q 2425 2703 2258 2804 
Q 2091 2906 1866 2906 
Q 1506 2906 1245 2678 
Q 984 2450 984 1813 
L 984 0 
L 422 0 
z
" transform="scale(0.015625)"/>
       <path id="ArialMT-63" d="M 2588 1216 
L 3141 1144 
Q 3050 572 2676 248 
Q 2303 -75 1759 -75 
Q 1078 -75 664 370 
Q 250 816 250 1647 
Q 250 2184 428 2587 
Q 606 2991 970 3192 
Q 1334 3394 1763 3394 
Q 2303 3394 2647 3120 
Q 2991 2847 3088 2344 
L 2541 2259 
Q 2463 2594 2264 2762 
Q 2066 2931 1784 2931 
Q 1359 2931 1093 2626 
Q 828 2322 828 1663 
Q 828 994 1084 691 
Q 1341 388 1753 388 
Q 2084 388 2306 591 
Q 2528 794 2588 1216 
z
" transform="scale(0.015625)"/>
       <path id="ArialMT-79" d="M 397 -1278 
L 334 -750 
Q 519 -800 656 -800 
Q 844 -800 956 -737 
Q 1069 -675 1141 -563 
Q 1194 -478 1313 -144 
Q 1328 -97 1363 -6 
L 103 3319 
L 709 3319 
L 1400 1397 
Q 1534 1031 1641 628 
Q 1738 1016 1872 1384 
L 2581 3319 
L 3144 3319 
L 1881 -56 
Q 1678 -603 1566 -809 
Q 1416 -1088 1222 -1217 
Q 1028 -1347 759 -1347 
Q 597 -1347 397 -1278 
z
" transform="scale(0.015625)"/>
      </defs>
      <use xlink:href="#ArialMT-4c"/>
      <use xlink:href="#ArialMT-61" x="55.615234"/>
      <use xlink:href="#ArialMT-74" x="111.230469"/>
      <use xlink:href="#ArialMT-65" x="139.013672"/>
      <use xlink:href="#ArialMT-6e" x="194.628906"/>
      <use xlink:href="#ArialMT-63" x="250.244141"/>
      <use xlink:href="#ArialMT-79" x="300.244141"/>
      <use xlink:href="#ArialMT-20" x="350.244141"/>
      <use xlink:href="#ArialMT-28" x="378.027344"/>
      <use xlink:href="#ArialMT-6d" x="411.328125"/>
      <use xlink:href="#ArialMT-73" x="494.628906"/>
      <use xlink:href="#ArialMT-29" x="544.628906"/>
     </g>
    </g>
   </g>
   <g id="PolyCollection_1"/>
   <g id="PathCollection_1">
    <defs>
     <path id="me29c9aa35c" d="M 0 2.236068 
C 0.593012 2.236068 1.161816 2.000462 1.581139 1.581139 
C 2.000462 1.161816 2.236068 0.593012 2.236068 0 
C 2.236068 -0.593012 2.000462 -1.161816 1.581139 -1.581139 
C 1.161816 -2.000462 0.593012 -2.236068 0 -2.236068 
C -0.593012 -2.236068 -1.161816 -2.000462 -1.581139 -1.581139 
C -2.000462 -1.161816 -2.236068 -0.593012 -2.236068 0 
C -2.236068 0.593012 -2.000462 1.161816 -1.581139 1.581139 
C -1.161816 2.000462 -0.593012 2.236068 0 2.236068 
z
" style="stroke: #ffffff; stroke-opacity: 0.7; stroke-width: 0.357771"/>
    </defs>
    <g clip-path="url(#p05babbb928)">
     <use xlink:href="#me29c9aa35c" x="210.743802" y="419.88" style="fill: #6c2b6d; fill-opacity: 0.7; stroke: #ffffff; stroke-opacity: 0.7; stroke-width: 0.357771"/>
     <use xlink:href="#me29c9aa35c" x="216.954671" y="333.84" style="fill: #6c2b6d; fill-opacity: 0.7; stroke: #ffffff; stroke-opacity: 0.7; stroke-width: 0.357771"/>
     <use xlink:href="#me29c9aa35c" x="223.16554" y="422.52" style="fill: #6c2b6d; fill-opacity: 0.7; stroke: #ffffff; stroke-opacity: 0.7; stroke-width: 0.357771"/>
     <use xlink:href="#me29c9aa35c" x="229.376409" y="238.44" style="fill: #6c2b6d; fill-opacity: 0.7; stroke: #ffffff; stroke-opacity: 0.7; stroke-width: 0.357771"/>
     <use xlink:href="#me29c9aa35c" x="235.587278" y="104.04" style="fill: #6c2b6d; fill-opacity: 0.7; stroke: #ffffff; stroke-opacity: 0.7; stroke-width: 0.357771"/>
     <use xlink:href="#me29c9aa35c" x="241.798147" y="214.32" style="fill: #6c2b6d; fill-opacity: 0.7; stroke: #ffffff; stroke-opacity: 0.7; stroke-width: 0.357771"/>
     <use xlink:href="#me29c9aa35c" x="248.009016" y="467.04" style="fill: #6c2b6d; fill-opacity: 0.7; stroke: #ffffff; stroke-opacity: 0.7; stroke-width: 0.357771"/>
     <use xlink:href="#me29c9aa35c" x="254.219885" y="281.52" style="fill: #6c2b6d; fill-opacity: 0.7; stroke: #ffffff; stroke-opacity: 0.7; stroke-width: 0.357771"/>
     <use xlink:href="#me29c9aa35c" x="260.430754" y="219.72" style="fill: #6c2b6d; fill-opacity: 0.7; stroke: #ffffff; stroke-opacity: 0.7; stroke-width: 0.357771"/>
     <use xlink:href="#me29c9aa35c" x="266.641623" y="453.48" style="fill: #6c2b6d; fill-opacity: 0.7; stroke: #ffffff; stroke-opacity: 0.7; stroke-width: 0.357771"/>
     <use xlink:href="#me29c9aa35c" x="272.852492" y="428.04" style="fill: #6c2b6d; fill-opacity: 0.7; stroke: #ffffff; stroke-opacity: 0.7; stroke-width: 0.357771"/>
     <use xlink:href="#me29c9aa35c" x="279.063361" y="323.16" style="fill: #6c2b6d; fill-opacity: 0.7; stroke: #ffffff; stroke-opacity: 0.7; stroke-width: 0.357771"/>
     <use xlink:href="#me29c9aa35c" x="285.27423" y="446.76" style="fill: #6c2b6d; fill-opacity: 0.7; stroke: #ffffff; stroke-opacity: 0.7; stroke-width: 0.357771"/>
     <use xlink:href="#me29c9aa35c" x="291.485099" y="449.4" style="fill: #6c2b6d; fill-opacity: 0.7; stroke: #ffffff; stroke-opacity: 0.7; stroke-width: 0.357771"/>
     <use xlink:href="#me29c9aa35c" x="297.695968" y="389.04" style="fill: #6c2b6d; fill-opacity: 0.7; stroke: #ffffff; stroke-opacity: 0.7; stroke-width: 0.357771"/>
     <use xlink:href="#me29c9aa35c" x="303.906837" y="180.6" style="fill: #6c2b6d; fill-opacity: 0.7; stroke: #ffffff; stroke-opacity: 0.7; stroke-width: 0.357771"/>
     <use xlink:href="#me29c9aa35c" x="310.117706" y="435.96" style="fill: #6c2b6d; fill-opacity: 0.7; stroke: #ffffff; stroke-opacity: 0.7; stroke-width: 0.357771"/>
     <use xlink:href="#me29c9aa35c" x="316.328575" y="325.8" style="fill: #6c2b6d; fill-opacity: 0.7; stroke: #ffffff; stroke-opacity: 0.7; stroke-width: 0.357771"/>
     <use xlink:href="#me29c9aa35c" x="322.539444" y="425.28" style="fill: #6c2b6d; fill-opacity: 0.7; stroke: #ffffff; stroke-opacity: 0.7; stroke-width: 0.357771"/>
     <use xlink:href="#me29c9aa35c" x="328.750313" y="288.12" style="fill: #6c2b6d; fill-opacity: 0.7; stroke: #ffffff; stroke-opacity: 0.7; stroke-width: 0.357771"/>
     <use xlink:href="#me29c9aa35c" x="334.961182" y="179.4" style="fill: #6c2b6d; fill-opacity: 0.7; stroke: #ffffff; stroke-opacity: 0.7; stroke-width: 0.357771"/>
     <use xlink:href="#me29c9aa35c" x="341.172051" y="372.84" style="fill: #6c2b6d; fill-opacity: 0.7; stroke: #ffffff; stroke-opacity: 0.7; stroke-width: 0.357771"/>
     <use xlink:href="#me29c9aa35c" x="347.38292" y="253.2" style="fill: #6c2b6d; fill-opacity: 0.7; stroke: #ffffff; stroke-opacity: 0.7; stroke-width: 0.357771"/>
     <use xlink:href="#me29c9aa35c" x="353.593789" y="429.24" style="fill: #6c2b6d; fill-opacity: 0.7; stroke: #ffffff; stroke-opacity: 0.7; stroke-width: 0.357771"/>
     <use xlink:href="#me29c9aa35c" x="359.804658" y="265.32" style="fill: #6c2b6d; fill-opacity: 0.7; stroke: #ffffff; stroke-opacity: 0.7; stroke-width: 0.357771"/>
     <use xlink:href="#me29c9aa35c" x="366.015527" y="342" style="fill: #6c2b6d; fill-opacity: 0.7; stroke: #ffffff; stroke-opacity: 0.7; stroke-width: 0.357771"/>
     <use xlink:href="#me29c9aa35c" x="372.226396" y="332.52" style="fill: #6c2b6d; fill-opacity: 0.7; stroke: #ffffff; stroke-opacity: 0.7; stroke-width: 0.357771"/>
     <use xlink:href="#me29c9aa35c" x="378.437265" y="280.2" style="fill: #6c2b6d; fill-opacity: 0.7; stroke: #ffffff; stroke-opacity: 0.7; stroke-width: 0.357771"/>
     <use xlink:href="#me29c9aa35c" x="384.648134" y="339.24" style="fill: #6c2b6d; fill-opacity: 0.7; stroke: #ffffff; stroke-opacity: 0.7; stroke-width: 0.357771"/>
     <use xlink:href="#me29c9aa35c" x="390.859003" y="364.8" style="fill: #6c2b6d; fill-opacity: 0.7; stroke: #ffffff; stroke-opacity: 0.7; stroke-width: 0.357771"/>
     <use xlink:href="#me29c9aa35c" x="397.069872" y="306.96" style="fill: #6c2b6d; fill-opacity: 0.7; stroke: #ffffff; stroke-opacity: 0.7; stroke-width: 0.357771"/>
     <use xlink:href="#me29c9aa35c" x="403.280741" y="257.4" style="fill: #6c2b6d; fill-opacity: 0.7; stroke: #ffffff; stroke-opacity: 0.7; stroke-width: 0.357771"/>
     <use xlink:href="#me29c9aa35c" x="409.49161" y="89.28" style="fill: #6c2b6d; fill-opacity: 0.7; stroke: #ffffff; stroke-opacity: 0.7; stroke-width: 0.357771"/>
     <use xlink:href="#me29c9aa35c" x="415.702479" y="148.32" style="fill: #6c2b6d; fill-opacity: 0.7; stroke: #ffffff; stroke-opacity: 0.7; stroke-width: 0.357771"/>
     <use xlink:href="#me29c9aa35c" x="421.913348" y="266.64" style="fill: #6c2b6d; fill-opacity: 0.7; stroke: #ffffff; stroke-opacity: 0.7; stroke-width: 0.357771"/>
     <use xlink:href="#me29c9aa35c" x="428.124217" y="337.92" style="fill: #6c2b6d; fill-opacity: 0.7; stroke: #ffffff; stroke-opacity: 0.7; stroke-width: 0.357771"/>
     <use xlink:href="#me29c9aa35c" x="434.335086" y="293.52" style="fill: #6c2b6d; fill-opacity: 0.7; stroke: #ffffff; stroke-opacity: 0.7; stroke-width: 0.357771"/>
     <use xlink:href="#me29c9aa35c" x="440.545955" y="133.56" style="fill: #6c2b6d; fill-opacity: 0.7; stroke: #ffffff; stroke-opacity: 0.7; stroke-width: 0.357771"/>
     <use xlink:href="#me29c9aa35c" x="446.756824" y="492.48" style="fill: #6c2b6d; fill-opacity: 0.7; stroke: #ffffff; stroke-opacity: 0.7; stroke-width: 0.357771"/>
     <use xlink:href="#me29c9aa35c" x="452.967693" y="199.44" style="fill: #6c2b6d; fill-opacity: 0.7; stroke: #ffffff; stroke-opacity: 0.7; stroke-width: 0.357771"/>
     <use xlink:href="#me29c9aa35c" x="459.178562" y="144.36" style="fill: #6c2b6d; fill-opacity: 0.7; stroke: #ffffff; stroke-opacity: 0.7; stroke-width: 0.357771"/>
     <use xlink:href="#me29c9aa35c" x="465.389432" y="409.2" style="fill: #6c2b6d; fill-opacity: 0.7; stroke: #ffffff; stroke-opacity: 0.7; stroke-width: 0.357771"/>
     <use xlink:href="#me29c9aa35c" x="471.600301" y="260.04" style="fill: #6c2b6d; fill-opacity: 0.7; stroke: #ffffff; stroke-opacity: 0.7; stroke-width: 0.357771"/>
     <use xlink:href="#me29c9aa35c" x="477.81117" y="180.6" style="fill: #6c2b6d; fill-opacity: 0.7; stroke: #ffffff; stroke-opacity: 0.7; stroke-width: 0.357771"/>
     <use xlink:href="#me29c9aa35c" x="484.022039" y="363.48" style="fill: #6c2b6d; fill-opacity: 0.7; stroke: #ffffff; stroke-opacity: 0.7; stroke-width: 0.357771"/>
     <use xlink:href="#me29c9aa35c" x="490.232908" y="282.72" style="fill: #6c2b6d; fill-opacity: 0.7; stroke: #ffffff; stroke-opacity: 0.7; stroke-width: 0.357771"/>
     <use xlink:href="#me29c9aa35c" x="496.443777" y="282.84" style="fill: #6c2b6d; fill-opacity: 0.7; stroke: #ffffff; stroke-opacity: 0.7; stroke-width: 0.357771"/>
     <use xlink:href="#me29c9aa35c" x="502.654646" y="237.12" style="fill: #6c2b6d; fill-opacity: 0.7; stroke: #ffffff; stroke-opacity: 0.7; stroke-width: 0.357771"/>
     <use xlink:href="#me29c9aa35c" x="508.865515" y="274.8" style="fill: #6c2b6d; fill-opacity: 0.7; stroke: #ffffff; stroke-opacity: 0.7; stroke-width: 0.357771"/>
     <use xlink:href="#me29c9aa35c" x="515.076384" y="227.64" style="fill: #6c2b6d; fill-opacity: 0.7; stroke: #ffffff; stroke-opacity: 0.7; stroke-width: 0.357771"/>
     <use xlink:href="#me29c9aa35c" x="521.287253" y="157.8" style="fill: #6c2b6d; fill-opacity: 0.7; stroke: #ffffff; stroke-opacity: 0.7; stroke-width: 0.357771"/>
     <use xlink:href="#me29c9aa35c" x="527.498122" y="380.88" style="fill: #6c2b6d; fill-opacity: 0.7; stroke: #ffffff; stroke-opacity: 0.7; stroke-width: 0.357771"/>
     <use xlink:href="#me29c9aa35c" x="533.708991" y="241.08" style="fill: #6c2b6d; fill-opacity: 0.7; stroke: #ffffff; stroke-opacity: 0.7; stroke-width: 0.357771"/>
     <use xlink:href="#me29c9aa35c" x="539.91986" y="270.84" style="fill: #6c2b6d; fill-opacity: 0.7; stroke: #ffffff; stroke-opacity: 0.7; stroke-width: 0.357771"/>
     <use xlink:href="#me29c9aa35c" x="546.130729" y="254.52" style="fill: #6c2b6d; fill-opacity: 0.7; stroke: #ffffff; stroke-opacity: 0.7; stroke-width: 0.357771"/>
     <use xlink:href="#me29c9aa35c" x="552.341598" y="331.32" style="fill: #6c2b6d; fill-opacity: 0.7; stroke: #ffffff; stroke-opacity: 0.7; stroke-width: 0.357771"/>
     <use xlink:href="#me29c9aa35c" x="558.552467" y="234.48" style="fill: #6c2b6d; fill-opacity: 0.7; stroke: #ffffff; stroke-opacity: 0.7; stroke-width: 0.357771"/>
     <use xlink:href="#me29c9aa35c" x="564.763336" y="292.2" style="fill: #6c2b6d; fill-opacity: 0.7; stroke: #ffffff; stroke-opacity: 0.7; stroke-width: 0.357771"/>
     <use xlink:href="#me29c9aa35c" x="570.974205" y="311.16" style="fill: #6c2b6d; fill-opacity: 0.7; stroke: #ffffff; stroke-opacity: 0.7; stroke-width: 0.357771"/>
     <use xlink:href="#me29c9aa35c" x="577.185074" y="179.4" style="fill: #6c2b6d; fill-opacity: 0.7; stroke: #ffffff; stroke-opacity: 0.7; stroke-width: 0.357771"/>
     <use xlink:href="#me29c9aa35c" x="583.395943" y="208.92" style="fill: #6c2b6d; fill-opacity: 0.7; stroke: #ffffff; stroke-opacity: 0.7; stroke-width: 0.357771"/>
     <use xlink:href="#me29c9aa35c" x="589.606812" y="337.8" style="fill: #6c2b6d; fill-opacity: 0.7; stroke: #ffffff; stroke-opacity: 0.7; stroke-width: 0.357771"/>
     <use xlink:href="#me29c9aa35c" x="595.817681" y="132.36" style="fill: #6c2b6d; fill-opacity: 0.7; stroke: #ffffff; stroke-opacity: 0.7; stroke-width: 0.357771"/>
     <use xlink:href="#me29c9aa35c" x="602.02855" y="234.36" style="fill: #6c2b6d; fill-opacity: 0.7; stroke: #ffffff; stroke-opacity: 0.7; stroke-width: 0.357771"/>
     <use xlink:href="#me29c9aa35c" x="608.239419" y="157.8" style="fill: #6c2b6d; fill-opacity: 0.7; stroke: #ffffff; stroke-opacity: 0.7; stroke-width: 0.357771"/>
     <use xlink:href="#me29c9aa35c" x="614.450288" y="379.68" style="fill: #6c2b6d; fill-opacity: 0.7; stroke: #ffffff; stroke-opacity: 0.7; stroke-width: 0.357771"/>
     <use xlink:href="#me29c9aa35c" x="620.661157" y="263.88" style="fill: #6c2b6d; fill-opacity: 0.7; stroke: #ffffff; stroke-opacity: 0.7; stroke-width: 0.357771"/>
     <use xlink:href="#me29c9aa35c" x="626.872026" y="243.72" style="fill: #6c2b6d; fill-opacity: 0.7; stroke: #ffffff; stroke-opacity: 0.7; stroke-width: 0.357771"/>
     <use xlink:href="#me29c9aa35c" x="633.082895" y="282.84" style="fill: #6c2b6d; fill-opacity: 0.7; stroke: #ffffff; stroke-opacity: 0.7; stroke-width: 0.357771"/>
     <use xlink:href="#me29c9aa35c" x="639.293764" y="338.04" style="fill: #6c2b6d; fill-opacity: 0.7; stroke: #ffffff; stroke-opacity: 0.7; stroke-width: 0.357771"/>
     <use xlink:href="#me29c9aa35c" x="645.504633" y="321.84" style="fill: #6c2b6d; fill-opacity: 0.7; stroke: #ffffff; stroke-opacity: 0.7; stroke-width: 0.357771"/>
     <use xlink:href="#me29c9aa35c" x="651.715502" y="315" style="fill: #6c2b6d; fill-opacity: 0.7; stroke: #ffffff; stroke-opacity: 0.7; stroke-width: 0.357771"/>
     <use xlink:href="#me29c9aa35c" x="657.926371" y="168.48" style="fill: #6c2b6d; fill-opacity: 0.7; stroke: #ffffff; stroke-opacity: 0.7; stroke-width: 0.357771"/>
     <use xlink:href="#me29c9aa35c" x="664.13724" y="298.92" style="fill: #6c2b6d; fill-opacity: 0.7; stroke: #ffffff; stroke-opacity: 0.7; stroke-width: 0.357771"/>
     <use xlink:href="#me29c9aa35c" x="670.348109" y="324.36" style="fill: #6c2b6d; fill-opacity: 0.7; stroke: #ffffff; stroke-opacity: 0.7; stroke-width: 0.357771"/>
     <use xlink:href="#me29c9aa35c" x="676.558978" y="313.68" style="fill: #6c2b6d; fill-opacity: 0.7; stroke: #ffffff; stroke-opacity: 0.7; stroke-width: 0.357771"/>
     <use xlink:href="#me29c9aa35c" x="682.769847" y="302.88" style="fill: #6c2b6d; fill-opacity: 0.7; stroke: #ffffff; stroke-opacity: 0.7; stroke-width: 0.357771"/>
     <use xlink:href="#me29c9aa35c" x="688.980716" y="176.64" style="fill: #6c2b6d; fill-opacity: 0.7; stroke: #ffffff; stroke-opacity: 0.7; stroke-width: 0.357771"/>
     <use xlink:href="#me29c9aa35c" x="695.191585" y="243.84" style="fill: #6c2b6d; fill-opacity: 0.7; stroke: #ffffff; stroke-opacity: 0.7; stroke-width: 0.357771"/>
     <use xlink:href="#me29c9aa35c" x="701.402454" y="371.52" style="fill: #6c2b6d; fill-opacity: 0.7; stroke: #ffffff; stroke-opacity: 0.7; stroke-width: 0.357771"/>
     <use xlink:href="#me29c9aa35c" x="707.613323" y="125.64" style="fill: #6c2b6d; fill-opacity: 0.7; stroke: #ffffff; stroke-opacity: 0.7; stroke-width: 0.357771"/>
     <use xlink:href="#me29c9aa35c" x="713.824192" y="273.36" style="fill: #6c2b6d; fill-opacity: 0.7; stroke: #ffffff; stroke-opacity: 0.7; stroke-width: 0.357771"/>
     <use xlink:href="#me29c9aa35c" x="720.035061" y="294.84" style="fill: #6c2b6d; fill-opacity: 0.7; stroke: #ffffff; stroke-opacity: 0.7; stroke-width: 0.357771"/>
     <use xlink:href="#me29c9aa35c" x="726.24593" y="155.16" style="fill: #6c2b6d; fill-opacity: 0.7; stroke: #ffffff; stroke-opacity: 0.7; stroke-width: 0.357771"/>
     <use xlink:href="#me29c9aa35c" x="732.456799" y="350.04" style="fill: #6c2b6d; fill-opacity: 0.7; stroke: #ffffff; stroke-opacity: 0.7; stroke-width: 0.357771"/>
     <use xlink:href="#me29c9aa35c" x="738.667668" y="285.6" style="fill: #6c2b6d; fill-opacity: 0.7; stroke: #ffffff; stroke-opacity: 0.7; stroke-width: 0.357771"/>
     <use xlink:href="#me29c9aa35c" x="744.878537" y="403.68" style="fill: #6c2b6d; fill-opacity: 0.7; stroke: #ffffff; stroke-opacity: 0.7; stroke-width: 0.357771"/>
     <use xlink:href="#me29c9aa35c" x="751.089406" y="394.44" style="fill: #6c2b6d; fill-opacity: 0.7; stroke: #ffffff; stroke-opacity: 0.7; stroke-width: 0.357771"/>
     <use xlink:href="#me29c9aa35c" x="757.300275" y="356.76" style="fill: #6c2b6d; fill-opacity: 0.7; stroke: #ffffff; stroke-opacity: 0.7; stroke-width: 0.357771"/>
     <use xlink:href="#me29c9aa35c" x="763.511145" y="120.24" style="fill: #6c2b6d; fill-opacity: 0.7; stroke: #ffffff; stroke-opacity: 0.7; stroke-width: 0.357771"/>
     <use xlink:href="#me29c9aa35c" x="769.722014" y="202.2" style="fill: #6c2b6d; fill-opacity: 0.7; stroke: #ffffff; stroke-opacity: 0.7; stroke-width: 0.357771"/>
     <use xlink:href="#me29c9aa35c" x="775.932883" y="219.72" style="fill: #6c2b6d; fill-opacity: 0.7; stroke: #ffffff; stroke-opacity: 0.7; stroke-width: 0.357771"/>
     <use xlink:href="#me29c9aa35c" x="782.143752" y="204.96" style="fill: #6c2b6d; fill-opacity: 0.7; stroke: #ffffff; stroke-opacity: 0.7; stroke-width: 0.357771"/>
     <use xlink:href="#me29c9aa35c" x="788.354621" y="327.12" style="fill: #6c2b6d; fill-opacity: 0.7; stroke: #ffffff; stroke-opacity: 0.7; stroke-width: 0.357771"/>
     <use xlink:href="#me29c9aa35c" x="794.56549" y="171.24" style="fill: #6c2b6d; fill-opacity: 0.7; stroke: #ffffff; stroke-opacity: 0.7; stroke-width: 0.357771"/>
     <use xlink:href="#me29c9aa35c" x="800.776359" y="135" style="fill: #6c2b6d; fill-opacity: 0.7; stroke: #ffffff; stroke-opacity: 0.7; stroke-width: 0.357771"/>
     <use xlink:href="#me29c9aa35c" x="806.987228" y="339.24" style="fill: #6c2b6d; fill-opacity: 0.7; stroke: #ffffff; stroke-opacity: 0.7; stroke-width: 0.357771"/>
     <use xlink:href="#me29c9aa35c" x="813.198097" y="188.64" style="fill: #6c2b6d; fill-opacity: 0.7; stroke: #ffffff; stroke-opacity: 0.7; stroke-width: 0.357771"/>
     <use xlink:href="#me29c9aa35c" x="819.408966" y="402.36" style="fill: #6c2b6d; fill-opacity: 0.7; stroke: #ffffff; stroke-opacity: 0.7; stroke-width: 0.357771"/>
     <use xlink:href="#me29c9aa35c" x="825.619835" y="276.12" style="fill: #6c2b6d; fill-opacity: 0.7; stroke: #ffffff; stroke-opacity: 0.7; stroke-width: 0.357771"/>
    </g>
   </g>
   <g id="PolyCollection_2">
    <defs>
     <path id="md77697bf53" d="M 210.743802 -384.864941 
L 210.743802 -197.322259 
L 216.954671 -197.322259 
L 223.16554 -197.322259 
L 229.376409 -197.322259 
L 235.587278 -197.322259 
L 241.798147 -197.322259 
L 248.009016 -197.322259 
L 254.219885 -197.322259 
L 260.430754 -197.322259 
L 266.641623 -197.322259 
L 272.852492 -197.322259 
L 279.063361 -197.322259 
L 285.27423 -197.322259 
L 291.485099 -197.322259 
L 297.695968 -197.322259 
L 303.906837 -197.322259 
L 310.117706 -197.322259 
L 316.328575 -197.322259 
L 322.539444 -197.322259 
L 328.750313 -197.322259 
L 334.961182 -197.322259 
L 341.172051 -197.322259 
L 347.38292 -197.322259 
L 353.593789 -197.322259 
L 359.804658 -197.322259 
L 366.015527 -197.322259 
L 372.226396 -197.322259 
L 378.437265 -197.322259 
L 384.648134 -197.322259 
L 390.859003 -197.322259 
L 397.069872 -197.322259 
L 403.280741 -197.322259 
L 409.49161 -197.322259 
L 415.702479 -197.322259 
L 421.913348 -197.322259 
L 428.124217 -197.322259 
L 434.335086 -197.322259 
L 440.545955 -197.322259 
L 446.756824 -197.322259 
L 452.967693 -197.322259 
L 459.178562 -197.322259 
L 465.389432 -197.322259 
L 471.600301 -197.322259 
L 477.81117 -197.322259 
L 484.022039 -197.322259 
L 490.232908 -197.322259 
L 496.443777 -197.322259 
L 502.654646 -197.322259 
L 508.865515 -197.322259 
L 515.076384 -197.322259 
L 521.287253 -197.322259 
L 527.498122 -197.322259 
L 533.708991 -197.322259 
L 539.91986 -197.322259 
L 546.130729 -197.322259 
L 552.341598 -197.322259 
L 558.552467 -197.322259 
L 564.763336 -197.322259 
L 570.974205 -197.322259 
L 577.185074 -197.322259 
L 583.395943 -197.322259 
L 589.606812 -197.322259 
L 595.817681 -197.322259 
L 602.02855 -197.322259 
L 608.239419 -197.322259 
L 614.450288 -197.322259 
L 620.661157 -197.322259 
L 626.872026 -197.322259 
L 633.082895 -197.322259 
L 639.293764 -197.322259 
L 645.504633 -197.322259 
L 651.715502 -197.322259 
L 657.926371 -197.322259 
L 664.13724 -197.322259 
L 670.348109 -197.322259 
L 676.558978 -197.322259 
L 682.769847 -197.322259 
L 688.980716 -197.322259 
L 695.191585 -197.322259 
L 701.402454 -197.322259 
L 707.613323 -197.322259 
L 713.824192 -197.322259 
L 720.035061 -197.322259 
L 726.24593 -197.322259 
L 732.456799 -197.322259 
L 738.667668 -197.322259 
L 744.878537 -197.322259 
L 751.089406 -197.322259 
L 757.300275 -197.322259 
L 763.511145 -197.322259 
L 769.722014 -197.322259 
L 775.932883 -197.322259 
L 782.143752 -197.322259 
L 788.354621 -197.322259 
L 794.56549 -197.322259 
L 800.776359 -197.322259 
L 806.987228 -197.322259 
L 813.198097 -197.322259 
L 819.408966 -197.322259 
L 825.619835 -197.322259 
L 825.619835 -384.864941 
L 825.619835 -384.864941 
L 819.408966 -384.864941 
L 813.198097 -384.864941 
L 806.987228 -384.864941 
L 800.776359 -384.864941 
L 794.56549 -384.864941 
L 788.354621 -384.864941 
L 782.143752 -384.864941 
L 775.932883 -384.864941 
L 769.722014 -384.864941 
L 763.511145 -384.864941 
L 757.300275 -384.864941 
L 751.089406 -384.864941 
L 744.878537 -384.864941 
L 738.667668 -384.864941 
L 732.456799 -384.864941 
L 726.24593 -384.864941 
L 720.035061 -384.864941 
L 713.824192 -384.864941 
L 707.613323 -384.864941 
L 701.402454 -384.864941 
L 695.191585 -384.864941 
L 688.980716 -384.864941 
L 682.769847 -384.864941 
L 676.558978 -384.864941 
L 670.348109 -384.864941 
L 664.13724 -384.864941 
L 657.926371 -384.864941 
L 651.715502 -384.864941 
L 645.504633 -384.864941 
L 639.293764 -384.864941 
L 633.082895 -384.864941 
L 626.872026 -384.864941 
L 620.661157 -384.864941 
L 614.450288 -384.864941 
L 608.239419 -384.864941 
L 602.02855 -384.864941 
L 595.817681 -384.864941 
L 589.606812 -384.864941 
L 583.395943 -384.864941 
L 577.185074 -384.864941 
L 570.974205 -384.864941 
L 564.763336 -384.864941 
L 558.552467 -384.864941 
L 552.341598 -384.864941 
L 546.130729 -384.864941 
L 539.91986 -384.864941 
L 533.708991 -384.864941 
L 527.498122 -384.864941 
L 521.287253 -384.864941 
L 515.076384 -384.864941 
L 508.865515 -384.864941 
L 502.654646 -384.864941 
L 496.443777 -384.864941 
L 490.232908 -384.864941 
L 484.022039 -384.864941 
L 477.81117 -384.864941 
L 471.600301 -384.864941 
L 465.389432 -384.864941 
L 459.178562 -384.864941 
L 452.967693 -384.864941 
L 446.756824 -384.864941 
L 440.545955 -384.864941 
L 434.335086 -384.864941 
L 428.124217 -384.864941 
L 421.913348 -384.864941 
L 415.702479 -384.864941 
L 409.49161 -384.864941 
L 403.280741 -384.864941 
L 397.069872 -384.864941 
L 390.859003 -384.864941 
L 384.648134 -384.864941 
L 378.437265 -384.864941 
L 372.226396 -384.864941 
L 366.015527 -384.864941 
L 359.804658 -384.864941 
L 353.593789 -384.864941 
L 347.38292 -384.864941 
L 341.172051 -384.864941 
L 334.961182 -384.864941 
L 328.750313 -384.864941 
L 322.539444 -384.864941 
L 316.328575 -384.864941 
L 310.117706 -384.864941 
L 303.906837 -384.864941 
L 297.695968 -384.864941 
L 291.485099 -384.864941 
L 285.27423 -384.864941 
L 279.063361 -384.864941 
L 272.852492 -384.864941 
L 266.641623 -384.864941 
L 260.430754 -384.864941 
L 254.219885 -384.864941 
L 248.009016 -384.864941 
L 241.798147 -384.864941 
L 235.587278 -384.864941 
L 229.376409 -384.864941 
L 223.16554 -384.864941 
L 216.954671 -384.864941 
L 210.743802 -384.864941 
z
" style="stroke: #d14a61; stroke-opacity: 0.3"/>
    </defs>
    <g clip-path="url(#p05babbb928)">
     <use xlink:href="#md77697bf53" x="0" y="576" style="fill: #d14a61; fill-opacity: 0.3; stroke: #d14a61; stroke-opacity: 0.3"/>
    </g>
   </g>
   <g id="PolyCollection_3">
    <defs>
     <path id="m3c694e5122" d="M 210.743802 -442.5 
L 210.743802 -139.5 
L 216.954671 -139.5 
L 223.16554 -139.5 
L 229.376409 -139.5 
L 235.587278 -139.5 
L 241.798147 -139.5 
L 248.009016 -139.5 
L 254.219885 -139.5 
L 260.430754 -139.5 
L 266.641623 -139.5 
L 272.852492 -139.5 
L 279.063361 -139.5 
L 285.27423 -139.5 
L 291.485099 -139.5 
L 297.695968 -139.5 
L 303.906837 -139.5 
L 310.117706 -139.5 
L 316.328575 -139.5 
L 322.539444 -139.5 
L 328.750313 -139.5 
L 334.961182 -139.5 
L 341.172051 -139.5 
L 347.38292 -139.5 
L 353.593789 -139.5 
L 359.804658 -139.5 
L 366.015527 -139.5 
L 372.226396 -139.5 
L 378.437265 -139.5 
L 384.648134 -139.5 
L 390.859003 -139.5 
L 397.069872 -139.5 
L 403.280741 -139.5 
L 409.49161 -139.5 
L 415.702479 -139.5 
L 421.913348 -139.5 
L 428.124217 -139.5 
L 434.335086 -139.5 
L 440.545955 -139.5 
L 446.756824 -139.5 
L 452.967693 -139.5 
L 459.178562 -139.5 
L 465.389432 -139.5 
L 471.600301 -139.5 
L 477.81117 -139.5 
L 484.022039 -139.5 
L 490.232908 -139.5 
L 496.443777 -139.5 
L 502.654646 -139.5 
L 508.865515 -139.5 
L 515.076384 -139.5 
L 521.287253 -139.5 
L 527.498122 -139.5 
L 533.708991 -139.5 
L 539.91986 -139.5 
L 546.130729 -139.5 
L 552.341598 -139.5 
L 558.552467 -139.5 
L 564.763336 -139.5 
L 570.974205 -139.5 
L 577.185074 -139.5 
L 583.395943 -139.5 
L 589.606812 -139.5 
L 595.817681 -139.5 
L 602.02855 -139.5 
L 608.239419 -139.5 
L 614.450288 -139.5 
L 620.661157 -139.5 
L 626.872026 -139.5 
L 633.082895 -139.5 
L 639.293764 -139.5 
L 645.504633 -139.5 
L 651.715502 -139.5 
L 657.926371 -139.5 
L 664.13724 -139.5 
L 670.348109 -139.5 
L 676.558978 -139.5 
L 682.769847 -139.5 
L 688.980716 -139.5 
L 695.191585 -139.5 
L 701.402454 -139.5 
L 707.613323 -139.5 
L 713.824192 -139.5 
L 720.035061 -139.5 
L 726.24593 -139.5 
L 732.456799 -139.5 
L 738.667668 -139.5 
L 744.878537 -139.5 
L 751.089406 -139.5 
L 757.300275 -139.5 
L 763.511145 -139.5 
L 769.722014 -139.5 
L 775.932883 -139.5 
L 782.143752 -139.5 
L 788.354621 -139.5 
L 794.56549 -139.5 
L 800.776359 -139.5 
L 806.987228 -139.5 
L 813.198097 -139.5 
L 819.408966 -139.5 
L 825.619835 -139.5 
L 825.619835 -442.5 
L 825.619835 -442.5 
L 819.408966 -442.5 
L 813.198097 -442.5 
L 806.987228 -442.5 
L 800.776359 -442.5 
L 794.56549 -442.5 
L 788.354621 -442.5 
L 782.143752 -442.5 
L 775.932883 -442.5 
L 769.722014 -442.5 
L 763.511145 -442.5 
L 757.300275 -442.5 
L 751.089406 -442.5 
L 744.878537 -442.5 
L 738.667668 -442.5 
L 732.456799 -442.5 
L 726.24593 -442.5 
L 720.035061 -442.5 
L 713.824192 -442.5 
L 707.613323 -442.5 
L 701.402454 -442.5 
L 695.191585 -442.5 
L 688.980716 -442.5 
L 682.769847 -442.5 
L 676.558978 -442.5 
L 670.348109 -442.5 
L 664.13724 -442.5 
L 657.926371 -442.5 
L 651.715502 -442.5 
L 645.504633 -442.5 
L 639.293764 -442.5 
L 633.082895 -442.5 
L 626.872026 -442.5 
L 620.661157 -442.5 
L 614.450288 -442.5 
L 608.239419 -442.5 
L 602.02855 -442.5 
L 595.817681 -442.5 
L 589.606812 -442.5 
L 583.395943 -442.5 
L 577.185074 -442.5 
L 570.974205 -442.5 
L 564.763336 -442.5 
L 558.552467 -442.5 
L 552.341598 -442.5 
L 546.130729 -442.5 
L 539.91986 -442.5 
L 533.708991 -442.5 
L 527.498122 -442.5 
L 521.287253 -442.5 
L 515.076384 -442.5 
L 508.865515 -442.5 
L 502.654646 -442.5 
L 496.443777 -442.5 
L 490.232908 -442.5 
L 484.022039 -442.5 
L 477.81117 -442.5 
L 471.600301 -442.5 
L 465.389432 -442.5 
L 459.178562 -442.5 
L 452.967693 -442.5 
L 446.756824 -442.5 
L 440.545955 -442.5 
L 434.335086 -442.5 
L 428.124217 -442.5 
L 421.913348 -442.5 
L 415.702479 -442.5 
L 409.49161 -442.5 
L 403.280741 -442.5 
L 397.069872 -442.5 
L 390.859003 -442.5 
L 384.648134 -442.5 
L 378.437265 -442.5 
L 372.226396 -442.5 
L 366.015527 -442.5 
L 359.804658 -442.5 
L 353.593789 -442.5 
L 347.38292 -442.5 
L 341.172051 -442.5 
L 334.961182 -442.5 
L 328.750313 -442.5 
L 322.539444 -442.5 
L 316.328575 -442.5 
L 310.117706 -442.5 
L 303.906837 -442.5 
L 297.695968 -442.5 
L 291.485099 -442.5 
L 285.27423 -442.5 
L 279.063361 -442.5 
L 272.852492 -442.5 
L 266.641623 -442.5 
L 260.430754 -442.5 
L 254.219885 -442.5 
L 248.009016 -442.5 
L 241.798147 -442.5 
L 235.587278 -442.5 
L 229.376409 -442.5 
L 223.16554 -442.5 
L 216.954671 -442.5 
L 210.743802 -442.5 
z
" style="stroke: #e98d6b; stroke-opacity: 0.3"/>
    </defs>
    <g clip-path="url(#p05babbb928)">
     <use xlink:href="#m3c694e5122" x="0" y="576" style="fill: #e98d6b; fill-opacity: 0.3; stroke: #e98d6b; stroke-opacity: 0.3"/>
    </g>
   </g>
   <g id="line2d_1">
    <path d="M 210.743802 419.88 
L 216.954671 333.84 
L 223.16554 422.52 
L 229.376409 238.44 
L 235.587278 104.04 
L 241.798147 214.32 
L 248.009016 467.04 
L 254.219885 281.52 
L 260.430754 219.72 
L 266.641623 453.48 
L 272.852492 428.04 
L 279.063361 323.16 
L 285.27423 446.76 
L 291.485099 449.4 
L 297.695968 389.04 
L 303.906837 180.6 
L 310.117706 435.96 
L 316.328575 325.8 
L 322.539444 425.28 
L 328.750313 288.12 
L 334.961182 179.4 
L 341.172051 372.84 
L 347.38292 253.2 
L 353.593789 429.24 
L 359.804658 265.32 
L 366.015527 342 
L 372.226396 332.52 
L 378.437265 280.2 
L 384.648134 339.24 
L 390.859003 364.8 
L 397.069872 306.96 
L 403.280741 257.4 
L 409.49161 89.28 
L 415.702479 148.32 
L 421.913348 266.64 
L 428.124217 337.92 
L 434.335086 293.52 
L 440.545955 133.56 
L 446.756824 492.48 
L 452.967693 199.44 
L 459.178562 144.36 
L 465.389432 409.2 
L 471.600301 260.04 
L 477.81117 180.6 
L 484.022039 363.48 
L 490.232908 282.72 
L 496.443777 282.84 
L 502.654646 237.12 
L 508.865515 274.8 
L 515.076384 227.64 
L 521.287253 157.8 
L 527.498122 380.88 
L 533.708991 241.08 
L 539.91986 270.84 
L 546.130729 254.52 
L 552.341598 331.32 
L 558.552467 234.48 
L 564.763336 292.2 
L 570.974205 311.16 
L 577.185074 179.4 
L 583.395943 208.92 
L 589.606812 337.8 
L 595.817681 132.36 
L 602.02855 234.36 
L 608.239419 157.8 
L 614.450288 379.68 
L 620.661157 263.88 
L 626.872026 243.72 
L 633.082895 282.84 
L 639.293764 338.04 
L 645.504633 321.84 
L 651.715502 315 
L 657.926371 168.48 
L 664.13724 298.92 
L 670.348109 324.36 
L 676.558978 313.68 
L 682.769847 302.88 
L 688.980716 176.64 
L 695.191585 243.84 
L 701.402454 371.52 
L 707.613323 125.64 
L 713.824192 273.36 
L 720.035061 294.84 
L 726.24593 155.16 
L 732.456799 350.04 
L 738.667668 285.6 
L 744.878537 403.68 
L 751.089406 394.44 
L 757.300275 356.76 
L 763.511145 120.24 
L 769.722014 202.2 
L 775.932883 219.72 
L 782.143752 204.96 
L 788.354621 327.12 
L 794.56549 171.24 
L 800.776359 135 
L 806.987228 339.24 
L 813.198097 188.64 
L 819.408966 402.36 
L 825.619835 276.12 
" clip-path="url(#p05babbb928)" style="fill: none; stroke: #6c2b6d; stroke-width: 1.5; stroke-linecap: round"/>
   </g>
   <g id="line2d_2">
    <path d="M 180 284.9064 
L 856.363636 284.9064 
" clip-path="url(#p05babbb928)" style="fill: none; stroke: #b13c6c; stroke-width: 4; stroke-linecap: round"/>
   </g>
   <g id="patch_3">
    <path d="M 180 512.64 
L 180 69.12 
" style="fill: none; stroke: #cccccc; stroke-width: 1.25; stroke-linejoin: miter; stroke-linecap: square"/>
   </g>
   <g id="patch_4">
    <path d="M 180 512.64 
L 856.363636 512.64 
" style="fill: none; stroke: #cccccc; stroke-width: 1.25; stroke-linejoin: miter; stroke-linecap: square"/>
   </g>
   <g id="text_16">
    <g id="patch_5">
     <path d="M 182.657877 197.480059 
L 220.604127 197.480059 
L 220.604127 178.585684 
L 182.657877 178.585684 
z
" style="fill: #ffffff; opacity: 0.5; stroke: #000000; stroke-linejoin: miter"/>
    </g>
    <!-- 79.10 -->
    <g style="fill: #262626" transform="translate(186.617877 191.135059) scale(0.12 -0.12)">
     <defs>
      <path id="ArialMT-39" d="M 350 1059 
L 891 1109 
Q 959 728 1153 556 
Q 1347 384 1650 384 
Q 1909 384 2104 503 
Q 2300 622 2425 820 
Q 2550 1019 2634 1356 
Q 2719 1694 2719 2044 
Q 2719 2081 2716 2156 
Q 2547 1888 2255 1720 
Q 1963 1553 1622 1553 
Q 1053 1553 659 1965 
Q 266 2378 266 3053 
Q 266 3750 677 4175 
Q 1088 4600 1706 4600 
Q 2153 4600 2523 4359 
Q 2894 4119 3086 3673 
Q 3278 3228 3278 2384 
Q 3278 1506 3087 986 
Q 2897 466 2520 194 
Q 2144 -78 1638 -78 
Q 1100 -78 759 220 
Q 419 519 350 1059 
z
M 2653 3081 
Q 2653 3566 2395 3850 
Q 2138 4134 1775 4134 
Q 1400 4134 1122 3828 
Q 844 3522 844 3034 
Q 844 2597 1108 2323 
Q 1372 2050 1759 2050 
Q 2150 2050 2401 2323 
Q 2653 2597 2653 3081 
z
" transform="scale(0.015625)"/>
      <path id="ArialMT-2e" d="M 581 0 
L 581 641 
L 1222 641 
L 1222 0 
L 581 0 
z
" transform="scale(0.015625)"/>
     </defs>
     <use xlink:href="#ArialMT-37"/>
     <use xlink:href="#ArialMT-39" x="55.615234"/>
     <use xlink:href="#ArialMT-2e" x="111.230469"/>
     <use xlink:href="#ArialMT-31" x="139.013672"/>
     <use xlink:href="#ArialMT-30" x="194.628906"/>
    </g>
   </g>
   <g id="text_17">
    <g id="patch_6">
     <path d="M 182.657877 385.022741 
L 220.604127 385.022741 
L 220.604127 366.128366 
L 182.657877 366.128366 
z
" style="fill: #ffffff; opacity: 0.5; stroke: #000000; stroke-linejoin: miter"/>
    </g>
    <!-- 63.47 -->
    <g style="fill: #262626" transform="translate(186.617877 378.677741) scale(0.12 -0.12)">
     <defs>
      <path id="ArialMT-33" d="M 269 1209 
L 831 1284 
Q 928 806 1161 595 
Q 1394 384 1728 384 
Q 2125 384 2398 659 
Q 2672 934 2672 1341 
Q 2672 1728 2419 1979 
Q 2166 2231 1775 2231 
Q 1616 2231 1378 2169 
L 1441 2663 
Q 1497 2656 1531 2656 
Q 1891 2656 2178 2843 
Q 2466 3031 2466 3422 
Q 2466 3731 2256 3934 
Q 2047 4138 1716 4138 
Q 1388 4138 1169 3931 
Q 950 3725 888 3313 
L 325 3413 
Q 428 3978 793 4289 
Q 1159 4600 1703 4600 
Q 2078 4600 2393 4439 
Q 2709 4278 2876 4000 
Q 3044 3722 3044 3409 
Q 3044 3113 2884 2869 
Q 2725 2625 2413 2481 
Q 2819 2388 3044 2092 
Q 3269 1797 3269 1353 
Q 3269 753 2831 336 
Q 2394 -81 1725 -81 
Q 1122 -81 723 278 
Q 325 638 269 1209 
z
" transform="scale(0.015625)"/>
     </defs>
     <use xlink:href="#ArialMT-36"/>
     <use xlink:href="#ArialMT-33" x="55.615234"/>
     <use xlink:href="#ArialMT-2e" x="111.230469"/>
     <use xlink:href="#ArialMT-34" x="139.013672"/>
     <use xlink:href="#ArialMT-37" x="194.628906"/>
    </g>
   </g>
   <g id="text_18">
    <g id="patch_7">
     <path d="M 182.657877 281.874266 
L 220.604127 281.874266 
L 220.604127 262.979891 
L 182.657877 262.979891 
z
" style="fill: #ffffff; opacity: 0.5; stroke: #000000; stroke-linejoin: miter"/>
    </g>
    <!-- 71.29 -->
    <g style="fill: #262626" transform="translate(186.617877 275.529266) scale(0.12 -0.12)">
     <use xlink:href="#ArialMT-37"/>
     <use xlink:href="#ArialMT-31" x="55.615234"/>
     <use xlink:href="#ArialMT-2e" x="111.230469"/>
     <use xlink:href="#ArialMT-32" x="139.013672"/>
     <use xlink:href="#ArialMT-39" x="194.628906"/>
    </g>
   </g>
   <g id="text_19">
    <!-- Latency Analysis -->
    <g style="fill: #000080" transform="translate(180 63.12) scale(0.2 -0.2)">
     <defs>
      <path id="ArialMT-41" d="M -9 0 
L 1750 4581 
L 2403 4581 
L 4278 0 
L 3588 0 
L 3053 1388 
L 1138 1388 
L 634 0 
L -9 0 
z
M 1313 1881 
L 2866 1881 
L 2388 3150 
Q 2169 3728 2063 4100 
Q 1975 3659 1816 3225 
L 1313 1881 
z
" transform="scale(0.015625)"/>
     </defs>
     <use xlink:href="#ArialMT-4c"/>
     <use xlink:href="#ArialMT-61" x="55.615234"/>
     <use xlink:href="#ArialMT-74" x="111.230469"/>
     <use xlink:href="#ArialMT-65" x="139.013672"/>
     <use xlink:href="#ArialMT-6e" x="194.628906"/>
     <use xlink:href="#ArialMT-63" x="250.244141"/>
     <use xlink:href="#ArialMT-79" x="300.244141"/>
     <use xlink:href="#ArialMT-20" x="350.244141"/>
     <use xlink:href="#ArialMT-41" x="372.527344"/>
     <use xlink:href="#ArialMT-6e" x="439.226562"/>
     <use xlink:href="#ArialMT-61" x="494.841797"/>
     <use xlink:href="#ArialMT-6c" x="550.457031"/>
     <use xlink:href="#ArialMT-79" x="572.673828"/>
     <use xlink:href="#ArialMT-73" x="622.673828"/>
     <use xlink:href="#ArialMT-69" x="672.673828"/>
     <use xlink:href="#ArialMT-73" x="694.890625"/>
    </g>
   </g>
   <g id="legend_1">
    <g id="patch_8">
     <path d="M 712.964386 505.44 
L 846.283636 505.44 
Q 849.163636 505.44 849.163636 502.56 
L 849.163636 421.8345 
Q 849.163636 418.9545 846.283636 418.9545 
L 712.964386 418.9545 
Q 710.084386 418.9545 710.084386 421.8345 
L 710.084386 502.56 
Q 710.084386 505.44 712.964386 505.44 
z
" style="fill: #ffffff; opacity: 0.8; stroke: #cccccc; stroke-linejoin: miter"/>
    </g>
    <g id="text_20">
     <!-- Latency Statistics -->
     <g style="fill: #262626" transform="translate(723.601261 435.19725) scale(0.144 -0.144)">
      <use xlink:href="#ArialMT-4c"/>
      <use xlink:href="#ArialMT-61" x="55.615234"/>
      <use xlink:href="#ArialMT-74" x="111.230469"/>
      <use xlink:href="#ArialMT-65" x="139.013672"/>
      <use xlink:href="#ArialMT-6e" x="194.628906"/>
      <use xlink:href="#ArialMT-63" x="250.244141"/>
      <use xlink:href="#ArialMT-79" x="300.244141"/>
      <use xlink:href="#ArialMT-20" x="350.244141"/>
      <use xlink:href="#ArialMT-53" x="378.027344"/>
      <use xlink:href="#ArialMT-74" x="444.726562"/>
      <use xlink:href="#ArialMT-61" x="472.509766"/>
      <use xlink:href="#ArialMT-74" x="528.125"/>
      <use xlink:href="#ArialMT-69" x="555.908203"/>
      <use xlink:href="#ArialMT-73" x="578.125"/>
      <use xlink:href="#ArialMT-74" x="628.125"/>
      <use xlink:href="#ArialMT-69" x="655.908203"/>
      <use xlink:href="#ArialMT-63" x="678.125"/>
      <use xlink:href="#ArialMT-73" x="728.125"/>
     </g>
    </g>
    <g id="line2d_3">
     <path d="M 715.844386 450.69525 
L 730.244386 450.69525 
L 744.644386 450.69525 
" style="fill: none; stroke: #b13c6c; stroke-width: 4; stroke-linecap: round"/>
    </g>
    <g id="text_21">
     <!-- Mean -->
     <g style="fill: #262626" transform="translate(756.164386 455.73525) scale(0.144 -0.144)">
      <defs>
       <path id="ArialMT-4d" d="M 475 0 
L 475 4581 
L 1388 4581 
L 2472 1338 
Q 2622 884 2691 659 
Q 2769 909 2934 1394 
L 4031 4581 
L 4847 4581 
L 4847 0 
L 4263 0 
L 4263 3834 
L 2931 0 
L 2384 0 
L 1059 3900 
L 1059 0 
L 475 0 
z
" transform="scale(0.015625)"/>
      </defs>
      <use xlink:href="#ArialMT-4d"/>
      <use xlink:href="#ArialMT-65" x="83.300781"/>
      <use xlink:href="#ArialMT-61" x="138.916016"/>
      <use xlink:href="#ArialMT-6e" x="194.53125"/>
     </g>
    </g>
    <g id="patch_9">
     <path d="M 715.844386 476.28 
L 744.644386 476.28 
L 744.644386 466.2 
L 715.844386 466.2 
z
" style="fill: #d14a61; fill-opacity: 0.3; stroke: #d14a61; stroke-opacity: 0.3; stroke-linejoin: miter"/>
    </g>
    <g id="text_22">
     <!-- 1 STD Range -->
     <g style="fill: #262626" transform="translate(756.164386 476.28) scale(0.144 -0.144)">
      <defs>
       <path id="ArialMT-44" d="M 494 0 
L 494 4581 
L 2072 4581 
Q 2606 4581 2888 4516 
Q 3281 4425 3559 4188 
Q 3922 3881 4101 3404 
Q 4281 2928 4281 2316 
Q 4281 1794 4159 1391 
Q 4038 988 3847 723 
Q 3656 459 3429 307 
Q 3203 156 2883 78 
Q 2563 0 2147 0 
L 494 0 
z
M 1100 541 
L 2078 541 
Q 2531 541 2789 625 
Q 3047 709 3200 863 
Q 3416 1078 3536 1442 
Q 3656 1806 3656 2325 
Q 3656 3044 3420 3430 
Q 3184 3816 2847 3947 
Q 2603 4041 2063 4041 
L 1100 4041 
L 1100 541 
z
" transform="scale(0.015625)"/>
       <path id="ArialMT-52" d="M 503 0 
L 503 4581 
L 2534 4581 
Q 3147 4581 3465 4457 
Q 3784 4334 3975 4021 
Q 4166 3709 4166 3331 
Q 4166 2844 3850 2509 
Q 3534 2175 2875 2084 
Q 3116 1969 3241 1856 
Q 3506 1613 3744 1247 
L 4541 0 
L 3778 0 
L 3172 953 
Q 2906 1366 2734 1584 
Q 2563 1803 2427 1890 
Q 2291 1978 2150 2013 
Q 2047 2034 1813 2034 
L 1109 2034 
L 1109 0 
L 503 0 
z
M 1109 2559 
L 2413 2559 
Q 2828 2559 3062 2645 
Q 3297 2731 3419 2920 
Q 3541 3109 3541 3331 
Q 3541 3656 3305 3865 
Q 3069 4075 2559 4075 
L 1109 4075 
L 1109 2559 
z
" transform="scale(0.015625)"/>
       <path id="ArialMT-67" d="M 319 -275 
L 866 -356 
Q 900 -609 1056 -725 
Q 1266 -881 1628 -881 
Q 2019 -881 2231 -725 
Q 2444 -569 2519 -288 
Q 2563 -116 2559 434 
Q 2191 0 1641 0 
Q 956 0 581 494 
Q 206 988 206 1678 
Q 206 2153 378 2554 
Q 550 2956 876 3175 
Q 1203 3394 1644 3394 
Q 2231 3394 2613 2919 
L 2613 3319 
L 3131 3319 
L 3131 450 
Q 3131 -325 2973 -648 
Q 2816 -972 2473 -1159 
Q 2131 -1347 1631 -1347 
Q 1038 -1347 672 -1080 
Q 306 -813 319 -275 
z
M 784 1719 
Q 784 1066 1043 766 
Q 1303 466 1694 466 
Q 2081 466 2343 764 
Q 2606 1063 2606 1700 
Q 2606 2309 2336 2618 
Q 2066 2928 1684 2928 
Q 1309 2928 1046 2623 
Q 784 2319 784 1719 
z
" transform="scale(0.015625)"/>
      </defs>
      <use xlink:href="#ArialMT-31"/>
      <use xlink:href="#ArialMT-20" x="55.615234"/>
      <use xlink:href="#ArialMT-53" x="83.398438"/>
      <use xlink:href="#ArialMT-54" x="150.097656"/>
      <use xlink:href="#ArialMT-44" x="211.181641"/>
      <use xlink:href="#ArialMT-20" x="283.398438"/>
      <use xlink:href="#ArialMT-52" x="311.181641"/>
      <use xlink:href="#ArialMT-61" x="383.398438"/>
      <use xlink:href="#ArialMT-6e" x="439.013672"/>
      <use xlink:href="#ArialMT-67" x="494.628906"/>
      <use xlink:href="#ArialMT-65" x="550.244141"/>
     </g>
    </g>
    <g id="patch_10">
     <path d="M 715.844386 496.818 
L 744.644386 496.818 
L 744.644386 486.738 
L 715.844386 486.738 
z
" style="fill: #e98d6b; fill-opacity: 0.3; stroke: #e98d6b; stroke-opacity: 0.3; stroke-linejoin: miter"/>
    </g>
    <g id="text_23">
     <!-- 95% of Data -->
     <g style="fill: #262626" transform="translate(756.164386 496.818) scale(0.144 -0.144)">
      <defs>
       <path id="ArialMT-25" d="M 372 3481 
Q 372 3972 619 4315 
Q 866 4659 1334 4659 
Q 1766 4659 2048 4351 
Q 2331 4044 2331 3447 
Q 2331 2866 2045 2552 
Q 1759 2238 1341 2238 
Q 925 2238 648 2547 
Q 372 2856 372 3481 
z
M 1350 4272 
Q 1141 4272 1002 4090 
Q 863 3909 863 3425 
Q 863 2984 1003 2804 
Q 1144 2625 1350 2625 
Q 1563 2625 1702 2806 
Q 1841 2988 1841 3469 
Q 1841 3913 1700 4092 
Q 1559 4272 1350 4272 
z
M 1353 -169 
L 3859 4659 
L 4316 4659 
L 1819 -169 
L 1353 -169 
z
M 3334 1075 
Q 3334 1569 3581 1911 
Q 3828 2253 4300 2253 
Q 4731 2253 5014 1945 
Q 5297 1638 5297 1041 
Q 5297 459 5011 145 
Q 4725 -169 4303 -169 
Q 3888 -169 3611 142 
Q 3334 453 3334 1075 
z
M 4316 1866 
Q 4103 1866 3964 1684 
Q 3825 1503 3825 1019 
Q 3825 581 3965 400 
Q 4106 219 4313 219 
Q 4528 219 4667 400 
Q 4806 581 4806 1063 
Q 4806 1506 4665 1686 
Q 4525 1866 4316 1866 
z
" transform="scale(0.015625)"/>
       <path id="ArialMT-6f" d="M 213 1659 
Q 213 2581 725 3025 
Q 1153 3394 1769 3394 
Q 2453 3394 2887 2945 
Q 3322 2497 3322 1706 
Q 3322 1066 3130 698 
Q 2938 331 2570 128 
Q 2203 -75 1769 -75 
Q 1072 -75 642 372 
Q 213 819 213 1659 
z
M 791 1659 
Q 791 1022 1069 705 
Q 1347 388 1769 388 
Q 2188 388 2466 706 
Q 2744 1025 2744 1678 
Q 2744 2294 2464 2611 
Q 2184 2928 1769 2928 
Q 1347 2928 1069 2612 
Q 791 2297 791 1659 
z
" transform="scale(0.015625)"/>
       <path id="ArialMT-66" d="M 556 0 
L 556 2881 
L 59 2881 
L 59 3319 
L 556 3319 
L 556 3672 
Q 556 4006 616 4169 
Q 697 4388 901 4523 
Q 1106 4659 1475 4659 
Q 1713 4659 2000 4603 
L 1916 4113 
Q 1741 4144 1584 4144 
Q 1328 4144 1222 4034 
Q 1116 3925 1116 3625 
L 1116 3319 
L 1763 3319 
L 1763 2881 
L 1116 2881 
L 1116 0 
L 556 0 
z
" transform="scale(0.015625)"/>
      </defs>
      <use xlink:href="#ArialMT-39"/>
      <use xlink:href="#ArialMT-35" x="55.615234"/>
      <use xlink:href="#ArialMT-25" x="111.230469"/>
      <use xlink:href="#ArialMT-20" x="200.146484"/>
      <use xlink:href="#ArialMT-6f" x="227.929688"/>
      <use xlink:href="#ArialMT-66" x="283.544922"/>
      <use xlink:href="#ArialMT-20" x="311.328125"/>
      <use xlink:href="#ArialMT-44" x="339.111328"/>
      <use xlink:href="#ArialMT-61" x="411.328125"/>
      <use xlink:href="#ArialMT-74" x="466.943359"/>
      <use xlink:href="#ArialMT-61" x="494.726562"/>
     </g>
    </g>
   </g>
  </g>
  <g id="axes_2">
   <g id="patch_11">
    <path d="M 957.818182 512.64 
L 1296 512.64 
L 1296 69.12 
L 957.818182 69.12 
z
" style="fill: #ffffff"/>
   </g>
   <g id="matplotlib.axis_3">
    <g id="xtick_7">
     <g id="text_24">
      <!-- 0 -->
      <g style="fill: #262626" transform="translate(954.759666 530.013594) scale(0.11 -0.11)">
       <use xlink:href="#ArialMT-30"/>
      </g>
     </g>
    </g>
    <g id="xtick_8">
     <g id="text_25">
      <!-- 2 -->
      <g style="fill: #262626" transform="translate(1008.43932 530.013594) scale(0.11 -0.11)">
       <use xlink:href="#ArialMT-32"/>
      </g>
     </g>
    </g>
    <g id="xtick_9">
     <g id="text_26">
      <!-- 4 -->
      <g style="fill: #262626" transform="translate(1062.118974 530.013594) scale(0.11 -0.11)">
       <use xlink:href="#ArialMT-34"/>
      </g>
     </g>
    </g>
    <g id="xtick_10">
     <g id="text_27">
      <!-- 6 -->
      <g style="fill: #262626" transform="translate(1115.798627 530.013594) scale(0.11 -0.11)">
       <use xlink:href="#ArialMT-36"/>
      </g>
     </g>
    </g>
    <g id="xtick_11">
     <g id="text_28">
      <!-- 8 -->
      <g style="fill: #262626" transform="translate(1169.478281 530.013594) scale(0.11 -0.11)">
       <use xlink:href="#ArialMT-38"/>
      </g>
     </g>
    </g>
    <g id="xtick_12">
     <g id="text_29">
      <!-- 10 -->
      <g style="fill: #262626" transform="translate(1220.099419 530.013594) scale(0.11 -0.11)">
       <use xlink:href="#ArialMT-31"/>
       <use xlink:href="#ArialMT-30" x="55.615234"/>
      </g>
     </g>
    </g>
    <g id="xtick_13">
     <g id="text_30">
      <!-- 12 -->
      <g style="fill: #262626" transform="translate(1273.779073 530.013594) scale(0.11 -0.11)">
       <use xlink:href="#ArialMT-31"/>
       <use xlink:href="#ArialMT-32" x="55.615234"/>
      </g>
     </g>
    </g>
    <g id="text_31">
     <!-- Frequency -->
     <g style="fill: #262626" transform="translate(1093.83956 546.220781) scale(0.14 -0.14)">
      <defs>
       <path id="ArialMT-46" d="M 525 0 
L 525 4581 
L 3616 4581 
L 3616 4041 
L 1131 4041 
L 1131 2622 
L 3281 2622 
L 3281 2081 
L 1131 2081 
L 1131 0 
L 525 0 
z
" transform="scale(0.015625)"/>
       <path id="ArialMT-72" d="M 416 0 
L 416 3319 
L 922 3319 
L 922 2816 
Q 1116 3169 1280 3281 
Q 1444 3394 1641 3394 
Q 1925 3394 2219 3213 
L 2025 2691 
Q 1819 2813 1613 2813 
Q 1428 2813 1281 2702 
Q 1134 2591 1072 2394 
Q 978 2094 978 1738 
L 978 0 
L 416 0 
z
" transform="scale(0.015625)"/>
       <path id="ArialMT-71" d="M 2538 -1272 
L 2538 353 
Q 2406 169 2170 47 
Q 1934 -75 1669 -75 
Q 1078 -75 651 397 
Q 225 869 225 1691 
Q 225 2191 398 2587 
Q 572 2984 901 3189 
Q 1231 3394 1625 3394 
Q 2241 3394 2594 2875 
L 2594 3319 
L 3100 3319 
L 3100 -1272 
L 2538 -1272 
z
M 803 1669 
Q 803 1028 1072 708 
Q 1341 388 1716 388 
Q 2075 388 2334 692 
Q 2594 997 2594 1619 
Q 2594 2281 2320 2615 
Q 2047 2950 1678 2950 
Q 1313 2950 1058 2639 
Q 803 2328 803 1669 
z
" transform="scale(0.015625)"/>
       <path id="ArialMT-75" d="M 2597 0 
L 2597 488 
Q 2209 -75 1544 -75 
Q 1250 -75 995 37 
Q 741 150 617 320 
Q 494 491 444 738 
Q 409 903 409 1263 
L 409 3319 
L 972 3319 
L 972 1478 
Q 972 1038 1006 884 
Q 1059 663 1231 536 
Q 1403 409 1656 409 
Q 1909 409 2131 539 
Q 2353 669 2445 892 
Q 2538 1116 2538 1541 
L 2538 3319 
L 3100 3319 
L 3100 0 
L 2597 0 
z
" transform="scale(0.015625)"/>
      </defs>
      <use xlink:href="#ArialMT-46"/>
      <use xlink:href="#ArialMT-72" x="61.083984"/>
      <use xlink:href="#ArialMT-65" x="94.384766"/>
      <use xlink:href="#ArialMT-71" x="150"/>
      <use xlink:href="#ArialMT-75" x="205.615234"/>
      <use xlink:href="#ArialMT-65" x="261.230469"/>
      <use xlink:href="#ArialMT-6e" x="316.845703"/>
      <use xlink:href="#ArialMT-63" x="372.460938"/>
      <use xlink:href="#ArialMT-79" x="422.460938"/>
     </g>
    </g>
   </g>
   <g id="matplotlib.axis_4">
    <g id="ytick_8">
     <g id="text_32">
      <!-- 55 -->
      <g style="fill: #262626" transform="translate(936.084119 484.296797) scale(0.11 -0.11)">
       <use xlink:href="#ArialMT-35"/>
       <use xlink:href="#ArialMT-35" x="55.615234"/>
      </g>
     </g>
    </g>
    <g id="ytick_9">
     <g id="text_33">
      <!-- 60 -->
      <g style="fill: #262626" transform="translate(936.084119 424.296797) scale(0.11 -0.11)">
       <use xlink:href="#ArialMT-36"/>
       <use xlink:href="#ArialMT-30" x="55.615234"/>
      </g>
     </g>
    </g>
    <g id="ytick_10">
     <g id="text_34">
      <!-- 65 -->
      <g style="fill: #262626" transform="translate(936.084119 364.296797) scale(0.11 -0.11)">
       <use xlink:href="#ArialMT-36"/>
       <use xlink:href="#ArialMT-35" x="55.615234"/>
      </g>
     </g>
    </g>
    <g id="ytick_11">
     <g id="text_35">
      <!-- 70 -->
      <g style="fill: #262626" transform="translate(936.084119 304.296797) scale(0.11 -0.11)">
       <use xlink:href="#ArialMT-37"/>
       <use xlink:href="#ArialMT-30" x="55.615234"/>
      </g>
     </g>
    </g>
    <g id="ytick_12">
     <g id="text_36">
      <!-- 75 -->
      <g style="fill: #262626" transform="translate(936.084119 244.296797) scale(0.11 -0.11)">
       <use xlink:href="#ArialMT-37"/>
       <use xlink:href="#ArialMT-35" x="55.615234"/>
      </g>
     </g>
    </g>
    <g id="ytick_13">
     <g id="text_37">
      <!-- 80 -->
      <g style="fill: #262626" transform="translate(936.084119 184.296797) scale(0.11 -0.11)">
       <use xlink:href="#ArialMT-38"/>
       <use xlink:href="#ArialMT-30" x="55.615234"/>
      </g>
     </g>
    </g>
    <g id="ytick_14">
     <g id="text_38">
      <!-- 85 -->
      <g style="fill: #262626" transform="translate(936.084119 124.296797) scale(0.11 -0.11)">
       <use xlink:href="#ArialMT-38"/>
       <use xlink:href="#ArialMT-35" x="55.615234"/>
      </g>
     </g>
    </g>
    <g id="text_39">
     <!-- Latency (ms) -->
     <g style="fill: #262626" transform="translate(929.137557 331.332344) rotate(-90) scale(0.14 -0.14)">
      <use xlink:href="#ArialMT-4c"/>
      <use xlink:href="#ArialMT-61" x="55.615234"/>
      <use xlink:href="#ArialMT-74" x="111.230469"/>
      <use xlink:href="#ArialMT-65" x="139.013672"/>
      <use xlink:href="#ArialMT-6e" x="194.628906"/>
      <use xlink:href="#ArialMT-63" x="250.244141"/>
      <use xlink:href="#ArialMT-79" x="300.244141"/>
      <use xlink:href="#ArialMT-20" x="350.244141"/>
      <use xlink:href="#ArialMT-28" x="378.027344"/>
      <use xlink:href="#ArialMT-6d" x="411.328125"/>
      <use xlink:href="#ArialMT-73" x="494.628906"/>
      <use xlink:href="#ArialMT-29" x="544.628906"/>
     </g>
    </g>
   </g>
   <g id="patch_12">
    <path d="M 957.818182 492.48 
L 1011.497835 492.48 
L 1011.497835 465.6 
L 957.818182 465.6 
z
" clip-path="url(#pbfac1d6174)" style="fill: #6c2b6d; fill-opacity: 0.5; stroke: #000000; stroke-width: 1.5; stroke-linejoin: miter"/>
   </g>
   <g id="patch_13">
    <path d="M 957.818182 465.6 
L 1038.337662 465.6 
L 1038.337662 438.72 
L 957.818182 438.72 
z
" clip-path="url(#pbfac1d6174)" style="fill: #6c2b6d; fill-opacity: 0.5; stroke: #000000; stroke-width: 1.5; stroke-linejoin: miter"/>
   </g>
   <g id="patch_14">
    <path d="M 957.818182 438.72 
L 1118.857143 438.72 
L 1118.857143 411.84 
L 957.818182 411.84 
z
" clip-path="url(#pbfac1d6174)" style="fill: #6c2b6d; fill-opacity: 0.5; stroke: #000000; stroke-width: 1.5; stroke-linejoin: miter"/>
   </g>
   <g id="patch_15">
    <path d="M 957.818182 411.84 
L 1092.017316 411.84 
L 1092.017316 384.96 
L 957.818182 384.96 
z
" clip-path="url(#pbfac1d6174)" style="fill: #6c2b6d; fill-opacity: 0.5; stroke: #000000; stroke-width: 1.5; stroke-linejoin: miter"/>
   </g>
   <g id="patch_16">
    <path d="M 957.818182 384.96 
L 1118.857143 384.96 
L 1118.857143 358.08 
L 957.818182 358.08 
z
" clip-path="url(#pbfac1d6174)" style="fill: #6c2b6d; fill-opacity: 0.5; stroke: #000000; stroke-width: 1.5; stroke-linejoin: miter"/>
   </g>
   <g id="patch_17">
    <path d="M 957.818182 358.08 
L 1253.056277 358.08 
L 1253.056277 331.2 
L 957.818182 331.2 
z
" clip-path="url(#pbfac1d6174)" style="fill: #6c2b6d; fill-opacity: 0.5; stroke: #000000; stroke-width: 1.5; stroke-linejoin: miter"/>
   </g>
   <g id="patch_18">
    <path d="M 957.818182 331.2 
L 1199.376623 331.2 
L 1199.376623 304.32 
L 957.818182 304.32 
z
" clip-path="url(#pbfac1d6174)" style="fill: #6c2b6d; fill-opacity: 0.5; stroke: #000000; stroke-width: 1.5; stroke-linejoin: miter"/>
   </g>
   <g id="patch_19">
    <path d="M 957.818182 304.32 
L 1279.896104 304.32 
L 1279.896104 277.44 
L 957.818182 277.44 
z
" clip-path="url(#pbfac1d6174)" style="fill: #6c2b6d; fill-opacity: 0.5; stroke: #000000; stroke-width: 1.5; stroke-linejoin: miter"/>
   </g>
   <g id="patch_20">
    <path d="M 957.818182 277.44 
L 1253.056277 277.44 
L 1253.056277 250.56 
L 957.818182 250.56 
z
" clip-path="url(#pbfac1d6174)" style="fill: #6c2b6d; fill-opacity: 0.5; stroke: #000000; stroke-width: 1.5; stroke-linejoin: miter"/>
   </g>
   <g id="patch_21">
    <path d="M 957.818182 250.56 
L 1172.536797 250.56 
L 1172.536797 223.68 
L 957.818182 223.68 
z
" clip-path="url(#pbfac1d6174)" style="fill: #6c2b6d; fill-opacity: 0.5; stroke: #000000; stroke-width: 1.5; stroke-linejoin: miter"/>
   </g>
   <g id="patch_22">
    <path d="M 957.818182 223.68 
L 1145.69697 223.68 
L 1145.69697 196.8 
L 957.818182 196.8 
z
" clip-path="url(#pbfac1d6174)" style="fill: #6c2b6d; fill-opacity: 0.5; stroke: #000000; stroke-width: 1.5; stroke-linejoin: miter"/>
   </g>
   <g id="patch_23">
    <path d="M 957.818182 196.8 
L 1145.69697 196.8 
L 1145.69697 169.92 
L 957.818182 169.92 
z
" clip-path="url(#pbfac1d6174)" style="fill: #6c2b6d; fill-opacity: 0.5; stroke: #000000; stroke-width: 1.5; stroke-linejoin: miter"/>
   </g>
   <g id="patch_24">
    <path d="M 957.818182 169.92 
L 1118.857143 169.92 
L 1118.857143 143.04 
L 957.818182 143.04 
z
" clip-path="url(#pbfac1d6174)" style="fill: #6c2b6d; fill-opacity: 0.5; stroke: #000000; stroke-width: 1.5; stroke-linejoin: miter"/>
   </g>
   <g id="patch_25">
    <path d="M 957.818182 143.04 
L 1092.017316 143.04 
L 1092.017316 116.16 
L 957.818182 116.16 
z
" clip-path="url(#pbfac1d6174)" style="fill: #6c2b6d; fill-opacity: 0.5; stroke: #000000; stroke-width: 1.5; stroke-linejoin: miter"/>
   </g>
   <g id="patch_26">
    <path d="M 957.818182 116.16 
L 1011.497835 116.16 
L 1011.497835 89.28 
L 957.818182 89.28 
z
" clip-path="url(#pbfac1d6174)" style="fill: #6c2b6d; fill-opacity: 0.5; stroke: #000000; stroke-width: 1.5; stroke-linejoin: miter"/>
   </g>
   <g id="line2d_4">
    <path d="M 996.008298 492.48 
L 1000.587461 488.427739 
L 1005.44058 484.375477 
L 1013.176408 478.297085 
L 1021.356663 472.218693 
L 1032.707074 464.114171 
L 1052.695947 449.931256 
L 1060.901523 443.852864 
L 1068.715973 437.774472 
L 1076.080865 431.69608 
L 1082.997716 425.617688 
L 1089.530681 419.539296 
L 1097.861501 411.434774 
L 1108.250282 401.304121 
L 1114.815806 395.225729 
L 1119.442022 391.173467 
L 1124.316224 387.121206 
L 1129.467098 383.068945 
L 1134.909521 379.016683 
L 1140.643279 374.964422 
L 1149.751508 368.88603 
L 1159.360254 362.807638 
L 1175.97163 352.676985 
L 1189.156474 344.572462 
L 1198.583552 338.49407 
L 1204.512155 334.441809 
L 1210.079992 330.389548 
L 1215.230238 326.337286 
L 1219.913963 322.285025 
L 1224.090045 318.232764 
L 1227.724666 314.180503 
L 1229.33017 312.154372 
L 1230.790539 310.128241 
L 1232.103244 308.102111 
L 1233.26606 306.07598 
L 1234.277052 304.049849 
L 1235.134556 302.023719 
L 1235.837175 299.997588 
L 1236.383775 297.971457 
L 1236.773488 295.945327 
L 1237.005721 293.919196 
L 1237.080176 291.893065 
L 1236.996864 289.866935 
L 1236.756135 287.840804 
L 1236.358703 285.814673 
L 1235.805679 283.788543 
L 1235.098602 281.762412 
L 1234.23947 279.736281 
L 1233.23077 277.710151 
L 1232.075507 275.68402 
L 1230.777227 273.657889 
L 1227.768602 269.605628 
L 1224.244606 265.553367 
L 1220.254067 261.501106 
L 1215.854436 257.448844 
L 1211.110751 253.396583 
L 1203.506702 247.318191 
L 1192.853606 239.213668 
L 1179.541344 229.083015 
L 1171.936871 223.004623 
L 1164.805938 216.926231 
L 1160.356167 212.87397 
L 1156.158223 208.821709 
L 1152.203714 204.769447 
L 1146.678017 198.691055 
L 1141.528215 192.612663 
L 1124.790451 172.351357 
L 1121.09395 168.299095 
L 1117.163219 164.246834 
L 1112.961933 160.194573 
L 1108.463597 156.142312 
L 1103.652352 152.09005 
L 1098.523334 148.037789 
L 1093.082611 143.985528 
L 1087.346718 139.933266 
L 1078.24913 133.854874 
L 1068.671549 127.776482 
L 1055.427664 119.67196 
L 1032.149947 105.489045 
L 1022.603288 99.410653 
L 1013.547164 93.332261 
L 1007.846927 89.28 
L 1007.846927 89.28 
" clip-path="url(#pbfac1d6174)" style="fill: none; stroke: #6c2b6d; stroke-width: 1.5; stroke-linecap: round"/>
   </g>
   <g id="patch_27">
    <path d="M 957.818182 512.64 
L 957.818182 69.12 
" style="fill: none; stroke: #cccccc; stroke-width: 1.25; stroke-linejoin: miter; stroke-linecap: square"/>
   </g>
   <g id="patch_28">
    <path d="M 957.818182 512.64 
L 1296 512.64 
" style="fill: none; stroke: #cccccc; stroke-width: 1.25; stroke-linejoin: miter; stroke-linecap: square"/>
   </g>
   <g id="text_40">
    <g id="patch_29">
     <path d="M 1143.052159 186.345 
L 1283.050909 186.345 
L 1283.050909 116.681625 
L 1143.052159 116.681625 
z
" style="fill: #ffffff; opacity: 0.5; stroke: #000000; stroke-linejoin: miter"/>
    </g>
    <!-- Mean: 71.29 -->
    <g style="fill: #262626" transform="translate(1212.382159 129.231) scale(0.12 -0.12)">
     <defs>
      <path id="ArialMT-3a" d="M 578 2678 
L 578 3319 
L 1219 3319 
L 1219 2678 
L 578 2678 
z
M 578 0 
L 578 641 
L 1219 641 
L 1219 0 
L 578 0 
z
" transform="scale(0.015625)"/>
     </defs>
     <use xlink:href="#ArialMT-4d"/>
     <use xlink:href="#ArialMT-65" x="83.300781"/>
     <use xlink:href="#ArialMT-61" x="138.916016"/>
     <use xlink:href="#ArialMT-6e" x="194.53125"/>
     <use xlink:href="#ArialMT-3a" x="250.146484"/>
     <use xlink:href="#ArialMT-20" x="277.929688"/>
     <use xlink:href="#ArialMT-37" x="305.712891"/>
     <use xlink:href="#ArialMT-31" x="361.328125"/>
     <use xlink:href="#ArialMT-2e" x="416.943359"/>
     <use xlink:href="#ArialMT-32" x="444.726562"/>
     <use xlink:href="#ArialMT-39" x="500.341797"/>
    </g>
    <!-- Median: 71.46 -->
    <g style="fill: #262626" transform="translate(1203.042784 141.92325) scale(0.12 -0.12)">
     <defs>
      <path id="ArialMT-64" d="M 2575 0 
L 2575 419 
Q 2259 -75 1647 -75 
Q 1250 -75 917 144 
Q 584 363 401 755 
Q 219 1147 219 1656 
Q 219 2153 384 2558 
Q 550 2963 881 3178 
Q 1213 3394 1622 3394 
Q 1922 3394 2156 3267 
Q 2391 3141 2538 2938 
L 2538 4581 
L 3097 4581 
L 3097 0 
L 2575 0 
z
M 797 1656 
Q 797 1019 1065 703 
Q 1334 388 1700 388 
Q 2069 388 2326 689 
Q 2584 991 2584 1609 
Q 2584 2291 2321 2609 
Q 2059 2928 1675 2928 
Q 1300 2928 1048 2622 
Q 797 2316 797 1656 
z
" transform="scale(0.015625)"/>
     </defs>
     <use xlink:href="#ArialMT-4d"/>
     <use xlink:href="#ArialMT-65" x="83.300781"/>
     <use xlink:href="#ArialMT-64" x="138.916016"/>
     <use xlink:href="#ArialMT-69" x="194.53125"/>
     <use xlink:href="#ArialMT-61" x="216.748047"/>
     <use xlink:href="#ArialMT-6e" x="272.363281"/>
     <use xlink:href="#ArialMT-3a" x="327.978516"/>
     <use xlink:href="#ArialMT-20" x="355.761719"/>
     <use xlink:href="#ArialMT-37" x="383.544922"/>
     <use xlink:href="#ArialMT-31" x="439.160156"/>
     <use xlink:href="#ArialMT-2e" x="494.775391"/>
     <use xlink:href="#ArialMT-34" x="522.558594"/>
     <use xlink:href="#ArialMT-36" x="578.173828"/>
    </g>
    <!-- Standard Deviation: 7.81 -->
    <g style="fill: #262626" transform="translate(1147.012159 154.6155) scale(0.12 -0.12)">
     <defs>
      <path id="ArialMT-76" d="M 1344 0 
L 81 3319 
L 675 3319 
L 1388 1331 
Q 1503 1009 1600 663 
Q 1675 925 1809 1294 
L 2547 3319 
L 3125 3319 
L 1869 0 
L 1344 0 
z
" transform="scale(0.015625)"/>
     </defs>
     <use xlink:href="#ArialMT-53"/>
     <use xlink:href="#ArialMT-74" x="66.699219"/>
     <use xlink:href="#ArialMT-61" x="94.482422"/>
     <use xlink:href="#ArialMT-6e" x="150.097656"/>
     <use xlink:href="#ArialMT-64" x="205.712891"/>
     <use xlink:href="#ArialMT-61" x="261.328125"/>
     <use xlink:href="#ArialMT-72" x="316.943359"/>
     <use xlink:href="#ArialMT-64" x="350.244141"/>
     <use xlink:href="#ArialMT-20" x="405.859375"/>
     <use xlink:href="#ArialMT-44" x="433.642578"/>
     <use xlink:href="#ArialMT-65" x="505.859375"/>
     <use xlink:href="#ArialMT-76" x="561.474609"/>
     <use xlink:href="#ArialMT-69" x="611.474609"/>
     <use xlink:href="#ArialMT-61" x="633.691406"/>
     <use xlink:href="#ArialMT-74" x="689.306641"/>
     <use xlink:href="#ArialMT-69" x="717.089844"/>
     <use xlink:href="#ArialMT-6f" x="739.306641"/>
     <use xlink:href="#ArialMT-6e" x="794.921875"/>
     <use xlink:href="#ArialMT-3a" x="850.537109"/>
     <use xlink:href="#ArialMT-20" x="878.320312"/>
     <use xlink:href="#ArialMT-37" x="906.103516"/>
     <use xlink:href="#ArialMT-2e" x="961.71875"/>
     <use xlink:href="#ArialMT-38" x="989.501953"/>
     <use xlink:href="#ArialMT-31" x="1045.117188"/>
    </g>
    <!-- Max: 87.59 -->
    <g style="fill: #262626" transform="translate(1219.728409 167.30775) scale(0.12 -0.12)">
     <defs>
      <path id="ArialMT-78" d="M 47 0 
L 1259 1725 
L 138 3319 
L 841 3319 
L 1350 2541 
Q 1494 2319 1581 2169 
Q 1719 2375 1834 2534 
L 2394 3319 
L 3066 3319 
L 1919 1756 
L 3153 0 
L 2463 0 
L 1781 1031 
L 1600 1309 
L 728 0 
L 47 0 
z
" transform="scale(0.015625)"/>
     </defs>
     <use xlink:href="#ArialMT-4d"/>
     <use xlink:href="#ArialMT-61" x="83.300781"/>
     <use xlink:href="#ArialMT-78" x="138.916016"/>
     <use xlink:href="#ArialMT-3a" x="188.916016"/>
     <use xlink:href="#ArialMT-20" x="216.699219"/>
     <use xlink:href="#ArialMT-38" x="244.482422"/>
     <use xlink:href="#ArialMT-37" x="300.097656"/>
     <use xlink:href="#ArialMT-2e" x="355.712891"/>
     <use xlink:href="#ArialMT-35" x="383.496094"/>
     <use xlink:href="#ArialMT-39" x="439.111328"/>
    </g>
    <!-- Min: 53.99 -->
    <g style="fill: #262626" transform="translate(1223.062159 180) scale(0.12 -0.12)">
     <use xlink:href="#ArialMT-4d"/>
     <use xlink:href="#ArialMT-69" x="83.300781"/>
     <use xlink:href="#ArialMT-6e" x="105.517578"/>
     <use xlink:href="#ArialMT-3a" x="161.132812"/>
     <use xlink:href="#ArialMT-20" x="188.916016"/>
     <use xlink:href="#ArialMT-35" x="216.699219"/>
     <use xlink:href="#ArialMT-33" x="272.314453"/>
     <use xlink:href="#ArialMT-2e" x="327.929688"/>
     <use xlink:href="#ArialMT-39" x="355.712891"/>
     <use xlink:href="#ArialMT-39" x="411.328125"/>
    </g>
   </g>
   <g id="text_41">
    <!-- Latency Distribution -->
    <g style="fill: #000080" transform="translate(957.818182 63.12) scale(0.2 -0.2)">
     <defs>
      <path id="ArialMT-62" d="M 941 0 
L 419 0 
L 419 4581 
L 981 4581 
L 981 2947 
Q 1338 3394 1891 3394 
Q 2197 3394 2470 3270 
Q 2744 3147 2920 2923 
Q 3097 2700 3197 2384 
Q 3297 2069 3297 1709 
Q 3297 856 2875 390 
Q 2453 -75 1863 -75 
Q 1275 -75 941 416 
L 941 0 
z
M 934 1684 
Q 934 1088 1097 822 
Q 1363 388 1816 388 
Q 2184 388 2453 708 
Q 2722 1028 2722 1663 
Q 2722 2313 2464 2622 
Q 2206 2931 1841 2931 
Q 1472 2931 1203 2611 
Q 934 2291 934 1684 
z
" transform="scale(0.015625)"/>
     </defs>
     <use xlink:href="#ArialMT-4c"/>
     <use xlink:href="#ArialMT-61" x="55.615234"/>
     <use xlink:href="#ArialMT-74" x="111.230469"/>
     <use xlink:href="#ArialMT-65" x="139.013672"/>
     <use xlink:href="#ArialMT-6e" x="194.628906"/>
     <use xlink:href="#ArialMT-63" x="250.244141"/>
     <use xlink:href="#ArialMT-79" x="300.244141"/>
     <use xlink:href="#ArialMT-20" x="350.244141"/>
     <use xlink:href="#ArialMT-44" x="378.027344"/>
     <use xlink:href="#ArialMT-69" x="450.244141"/>
     <use xlink:href="#ArialMT-73" x="472.460938"/>
     <use xlink:href="#ArialMT-74" x="522.460938"/>
     <use xlink:href="#ArialMT-72" x="550.244141"/>
     <use xlink:href="#ArialMT-69" x="583.544922"/>
     <use xlink:href="#ArialMT-62" x="605.761719"/>
     <use xlink:href="#ArialMT-75" x="661.376953"/>
     <use xlink:href="#ArialMT-74" x="716.992188"/>
     <use xlink:href="#ArialMT-69" x="744.775391"/>
     <use xlink:href="#ArialMT-6f" x="766.992188"/>
     <use xlink:href="#ArialMT-6e" x="822.607422"/>
    </g>
   </g>
  </g>
 </g>
 <defs>
  <clipPath id="p05babbb928">
   <rect x="180" y="69.12" width="676.363636" height="443.52"/>
  </clipPath>
  <clipPath id="pbfac1d6174">
   <rect x="957.818182" y="69.12" width="338.181818" height="443.52"/>
  </clipPath>
 </defs>
</svg>
